<?xml version="1.0" encoding="UTF-8"?>
<svg width="276px" height="45px" viewBox="0 0 276 45" version="1.1" xmlns="http://www.w3.org/2000/svg" xmlns:xlink="http://www.w3.org/1999/xlink">
    <!-- Generator: Sketch 51.1 (57501) - http://www.bohemiancoding.com/sketch -->
    <title>type/million-1</title>
    <desc>Created with Sketch.</desc>
    <defs></defs>
    <g id="Homepage" stroke="none" stroke-width="1" fill="none" fill-rule="evenodd">
        <g id="index-mobile" transform="translate(-22.000000, -284.000000)">
            <g id="Group-23" transform="translate(20.000000, 222.000000)">
                <g id="type/million-1" transform="translate(2.000000, 62.000000)">
                    <g id="type/onemillion-1">
                        <path d="M41.9895096,41.3799344 L50.0984777,41.3799344 L44.4059777,3.54157377 L35.7905202,3.54157377 L26.454233,26.881082 L17.6361798,3.54157377 L9.12569043,3.54157377 L2.73364787,41.3799344 L10.7838926,41.3799344 L14.1135096,18.3266557 L15.9185202,18.3266557 L25.0624883,41.3799344 L27.7050415,41.3799344 L37.2718181,18.3266557 L39.081967,18.3266557 L41.9895096,41.3799344 Z M52.6588181,43.5930492 L40.047967,43.5930492 L37.5133181,23.493541 L29.1731266,43.5930492 L23.5701798,43.5930492 L15.5940734,23.4839508 L12.689467,43.5930492 L0.126328723,43.5930492 L7.2656266,1.32845902 L19.1563819,1.32845902 L26.5129564,20.8016557 L34.3018819,1.32845902 L46.2998074,1.32845902 L52.6588181,43.5930492 Z" id="Fill-8" fill="#FFE66D"></path>
                        <path d="M58.9333404,41.3801557 L67.0907553,41.3801557 L67.0907553,3.54179508 L58.9333404,3.54179508 L58.9333404,41.3801557 Z M56.7312128,43.5932705 L69.292883,43.5932705 L69.292883,1.32868033 L56.7312128,1.32868033 L56.7312128,43.5932705 Z" id="Fill-10" fill="#8AE1D7"></path>
                        <path d="M77.8479287,41.3799344 L98.4268117,41.3799344 L98.4268117,34.7752623 L86.0053436,34.7752623 L86.0053436,3.54157377 L77.8479287,3.54157377 L77.8479287,41.3799344 Z M100.628939,43.5930492 L75.6458011,43.5930492 L75.6458011,1.32845902 L88.2074713,1.32845902 L88.2074713,32.5621475 L100.628939,32.5621475 L100.628939,43.5930492 Z" id="Fill-12" fill="#FF6679"></path>
                        <path d="M105.456957,41.3799344 L126.03584,41.3799344 L126.03584,34.7752623 L113.614372,34.7752623 L113.614372,3.54157377 L105.456957,3.54157377 L105.456957,41.3799344 Z M128.237968,43.5930492 L103.25483,43.5930492 L103.25483,1.32845902 L115.8165,1.32845902 L115.8165,32.5621475 L128.237968,32.5621475 L128.237968,43.5930492 Z" id="Fill-13" fill="#FFE66D"></path>
                        <path d="M133.0665,41.3801557 L141.223915,41.3801557 L141.223915,3.54179508 L133.0665,3.54179508 L133.0665,41.3801557 Z M130.865106,43.5932705 L143.426777,43.5932705 L143.426777,1.32868033 L130.865106,1.32868033 L130.865106,43.5932705 Z" id="Fill-14" fill="#8AE1D7"></path>
                        <path d="M170.960199,12.3058033 C165.548837,12.3058033 160.802518,16.7283443 160.802518,21.7698197 C160.802518,27.851459 165.264029,32.6155574 170.960199,32.6155574 C176.655635,32.6155574 181.117146,27.851459 181.117146,21.7698197 C181.117146,16.7283443 176.370827,12.3058033 170.960199,12.3058033 M170.960199,34.8286721 C164.030103,34.8286721 158.60039,29.0922787 158.60039,21.7698197 C158.60039,15.4403115 164.260593,10.0926885 170.960199,10.0926885 C177.659805,10.0926885 183.319273,15.4403115 183.319273,21.7698197 C183.319273,29.0922787 177.890295,34.8286721 170.960199,34.8286721 M170.960199,2.2132623 C160.889135,2.2132623 150.020167,9.66998361 150.020167,21.7167049 C150.020167,34.0762131 158.630486,42.7080984 170.960199,42.7080984 C183.289178,42.7080984 191.899497,34.0762131 191.899497,21.7167049 C191.899497,9.66998361 181.030529,2.2132623 170.960199,2.2132623 M170.960199,44.9212131 C157.549976,44.9212131 147.818039,35.1621148 147.818039,21.7167049 C147.818039,9.74227869 158.199603,0.000147540984 170.960199,0.000147540984 C183.720795,0.000147540984 194.101624,9.74227869 194.101624,21.7167049 C194.101624,35.1621148 184.369688,44.9212131 170.960199,44.9212131" id="Fill-15" fill="#FF6679"></path>
                        <path d="M229.651379,41.3799344 L238.37107,41.3799344 L238.37107,3.54157377 L230.213655,3.54157377 L230.213655,28.0289508 L228.468836,28.0289508 L209.493102,3.54157377 L200.772677,3.54157377 L200.772677,41.3799344 L208.930091,41.3799344 L208.930091,16.8387049 L210.675645,16.8387049 L229.651379,41.3799344 Z M240.573198,43.5930492 L228.57307,43.5930492 L211.132219,21.0362459 L211.132219,43.5930492 L198.570549,43.5930492 L198.570549,1.32845902 L210.569943,1.32845902 L228.011528,23.8365738 L228.011528,1.32845902 L240.573198,1.32845902 L240.573198,43.5930492 Z" id="Fill-16" fill="#FFE66D"></path>
                        <path d="M258.328513,34.9790164 L264.054779,34.9790164 L264.054779,25.3113934 L273.621555,25.3113934 L273.621555,19.5565574 L264.054779,19.5565574 L264.054779,9.94204918 L258.328513,9.94204918 L258.328513,19.5565574 L248.761736,19.5565574 L248.761736,25.3113934 L258.328513,25.3113934 L258.328513,34.9790164 Z M266.256906,37.1921311 L256.126385,37.1921311 L256.126385,27.5245082 L246.559609,27.5245082 L246.559609,17.3434426 L256.126385,17.3434426 L256.126385,7.72893443 L266.256906,7.72893443 L266.256906,17.3434426 L275.823683,17.3434426 L275.823683,27.5245082 L266.256906,27.5245082 L266.256906,37.1921311 Z" id="Fill-17" fill="#8AE1D7"></path>
                    </g>
                </g>
            </g>
        </g>
    </g>
</svg>