<?xml version="1.0" encoding="UTF-8"?>
<svg width="125px" height="45px" viewBox="0 0 125 45" version="1.1" xmlns="http://www.w3.org/2000/svg" xmlns:xlink="http://www.w3.org/1999/xlink">
    <!-- Generator: Sketch 51.1 (57501) - http://www.bohemiancoding.com/sketch -->
    <title>type/one-1</title>
    <desc>Created with Sketch.</desc>
    <defs></defs>
    <g id="Homepage" stroke="none" stroke-width="1" fill="none" fill-rule="evenodd">
        <g id="index-mobile" transform="translate(-98.000000, -222.000000)">
            <g id="Group-23" transform="translate(20.000000, 222.000000)">
                <g id="type/one-1" transform="translate(78.000000, 0.000000)">
                    <g id="type/onemillion-1">
                        <path d="M23.1818382,12.3058033 C17.76125,12.3058033 13.0068382,16.7283443 13.0068382,21.7698197 C13.0068382,27.851459 17.4759559,32.6155574 23.1818382,32.6155574 C28.8869853,32.6155574 33.3561029,27.851459 33.3561029,21.7698197 C33.3561029,16.7283443 28.6016912,12.3058033 23.1818382,12.3058033 M23.1818382,34.8286721 C16.2399265,34.8286721 10.8009559,29.0922787 10.8009559,21.7698197 C10.8009559,15.4403115 16.4708088,10.0926885 23.1818382,10.0926885 C29.8928676,10.0926885 35.5619853,15.4403115 35.5619853,21.7698197 C35.5619853,29.0922787 30.12375,34.8286721 23.1818382,34.8286721 M23.1818382,2.2132623 C13.0936029,2.2132623 2.20610294,9.66998361 2.20610294,21.7167049 C2.20610294,34.0762131 10.8311029,42.7080984 23.1818382,42.7080984 C35.5318382,42.7080984 44.1568382,34.0762131 44.1568382,21.7167049 C44.1568382,9.66998361 33.2693382,2.2132623 23.1818382,2.2132623 M23.1818382,44.9212131 C9.74875,44.9212131 0.000220588235,35.1621148 0.000220588235,21.7167049 C0.000220588235,9.74227869 10.3994853,0.000147540984 23.1818382,0.000147540984 C35.9641912,0.000147540984 46.3627206,9.74227869 46.3627206,21.7167049 C46.3627206,35.1621148 36.6141912,44.9212131 23.1818382,44.9212131" id="Fill-1" fill="#FFE66D"></path>
                        <path d="M81.9730882,41.3799344 L90.7076471,41.3799344 L90.7076471,3.54157377 L82.5363235,3.54157377 L82.5363235,28.0289508 L80.7885294,28.0289508 L61.7804412,3.54157377 L53.0451471,3.54157377 L53.0451471,41.3799344 L61.2164706,41.3799344 L61.2164706,16.8387049 L62.9657353,16.8387049 L81.9730882,41.3799344 Z M92.9135294,43.5930492 L80.8929412,43.5930492 L63.4223529,21.0355082 L63.4223529,43.5930492 L50.8392647,43.5930492 L50.8392647,1.32845902 L62.8591176,1.32845902 L80.3304412,23.8365738 L80.3304412,1.32845902 L92.9135294,1.32845902 L92.9135294,43.5930492 Z" id="Fill-4" fill="#8AE1D7"></path>
                        <path d="M101.613456,41.3799344 L122.121544,41.3799344 L122.121544,34.7752623 L109.784779,34.7752623 L109.784779,25.6564918 L121.485515,25.6564918 L121.485515,19.0518197 L109.784779,19.0518197 L109.784779,10.1455082 L122.121544,10.1455082 L122.121544,3.54157377 L101.613456,3.54157377 L101.613456,41.3799344 Z M124.327426,43.5930492 L99.4075735,43.5930492 L99.4075735,1.32845902 L124.327426,1.32845902 L124.327426,12.358623 L111.990662,12.358623 L111.990662,16.8387049 L123.691397,16.8387049 L123.691397,27.8696066 L111.990662,27.8696066 L111.990662,32.5621475 L124.327426,32.5621475 L124.327426,43.5930492 Z" id="Fill-6" fill="#FF6679"></path>
                    </g>
                </g>
            </g>
        </g>
    </g>
</svg>