<?xml version="1.0" encoding="UTF-8"?>
<svg width="18px" height="18px" viewBox="0 0 18 18" version="1.1" xmlns="http://www.w3.org/2000/svg" xmlns:xlink="http://www.w3.org/1999/xlink">
    <!-- Generator: Sketch 51.1 (57501) - http://www.bohemiancoding.com/sketch -->
    <title>icon/dribbble-white</title>
    <desc>Created with Sketch.</desc>
    <defs>
        <path d="M8.99957813,17.9991562 C4.03717969,17.9991562 0,13.9619766 0,8.99957812 C0,4.03717969 4.03717969,0 8.99957813,0 C13.9619766,0 17.9991563,4.03717969 17.9991563,8.99957812 C17.9991563,13.9619766 13.9619531,17.9991562 8.99957813,17.9991562 Z M16.5893906,10.2315 C16.3263984,10.1484844 14.2100625,9.51728906 11.8011094,9.90288281 C12.8065781,12.6657656 13.2156797,14.9161641 13.2944531,15.3836484 C15.0191016,14.2175625 16.2467578,12.3703828 16.5893906,10.2315 Z M12.0022734,16.0874063 C11.8879453,15.4129922 11.441625,13.0625391 10.3624219,10.2580547 C10.3455,10.2638203 10.328625,10.2693047 10.3117031,10.2751875 C5.97595313,11.7860156 4.41951562,14.7928125 4.28123437,15.0756094 C6.48012759,16.7901635 9.43584844,17.1774934 12.0022734,16.0874063 Z M3.28870313,14.1510937 C3.46282031,13.8530156 5.5725,10.3599141 9.537,9.07844531 C9.6371875,9.04605469 9.73815625,9.01558594 9.83990625,8.98703906 C9.64694531,8.550375 9.43678125,8.11319531 9.21670313,7.68253125 C5.377875,8.83139063 1.65278906,8.78339063 1.31646094,8.77647656 C1.31411719,8.85452344 1.31254688,8.93275781 1.31254688,9.01136719 C1.31106488,10.9103973 2.01537313,12.7422118 3.28870313,14.1510938 Z M1.47492188,7.43690625 C1.81872656,7.44142969 4.98585938,7.4551875 8.58147656,6.50032031 C7.30778906,4.23625781 5.93411719,2.33257031 5.73147656,2.05464844 C3.58096875,3.06902344 1.97336719,5.05153125 1.47492188,7.43690625 Z M7.19819531,1.53796875 C7.41067969,1.82245313 8.80680469,3.72370313 10.0664531,6.03796875 C12.7998516,5.01344531 13.9570781,3.45813281 14.0953594,3.26121094 C12.2167477,1.59288217 9.6407213,0.949267292 7.19819531,1.53796875 Z M14.9498203,4.15019531 C14.7877734,4.3695 13.4997188,6.02071875 10.6574531,7.18110938 C10.8363281,7.54727344 11.0077969,7.91967188 11.1674531,8.29453125 C11.2240313,8.42734375 11.2792266,8.55957813 11.3330391,8.69123438 C13.8908203,8.369625 16.4322422,8.8850625 16.6856719,8.93866406 C16.6709606,7.19109556 16.058376,5.50123799 14.9498203,4.15019531 Z" id="path-1"></path>
    </defs>
    <g id="Homepage" stroke="none" stroke-width="1" fill="none" fill-rule="evenodd">
        <g id="index-mobile" transform="translate(-97.000000, -153.000000)">
            <g id="Group-28" transform="translate(97.000000, 150.000000)">
                <g id="Group-7">
                    <g id="icon/dribbble-white" transform="translate(0.000000, 3.000000)">
                        <mask id="mask-2" fill="white">
                            <use xlink:href="#path-1"></use>
                        </mask>
                        <use fill="#FFFFFF" fill-rule="nonzero" xlink:href="#path-1"></use>
                        <g id="_colors/general_white" mask="url(#mask-2)" fill="#FFFFFF" fill-rule="evenodd">
                            <rect id="Rectangle" x="0" y="0" width="18" height="18"></rect>
                        </g>
                    </g>
                </g>
            </g>
        </g>
    </g>
</svg>