<?xml version="1.0" encoding="UTF-8"?>
<svg width="22px" height="16px" viewBox="0 0 22 16" version="1.1" xmlns="http://www.w3.org/2000/svg" xmlns:xlink="http://www.w3.org/1999/xlink">
    <!-- Generator: Sketch 51.1 (57501) - http://www.bohemiancoding.com/sketch -->
    <title>_social/Isolated/Youtube</title>
    <desc>Created with Sketch.</desc>
    <defs>
        <path d="M19.6770312,4.81154955 C17.1743793,4.70814235 14.6127887,4.66343495 12.0008763,4.66684773 C9.38861923,4.66343495 6.82875203,4.70814235 4.32506612,4.81154955 C2.57138303,4.81154955 1.14823888,6.20430454 1.14823888,7.92024967 C1.04380374,9.28058327 0.998651914,10.639893 1.0000306,11.9985202 C0.998651914,13.3588538 1.04380374,14.7178223 1.14823888,16.0764495 C1.14823888,17.7944423 2.57103836,19.1865148 4.32506612,19.1865148 C6.82840736,19.2919696 9.38861923,19.3353119 12.0008763,19.3332642 C14.6131334,19.3353119 17.1743793,19.2919696 19.6770312,19.1865148 C21.4307143,19.1865148 22.8535138,17.7944423 22.8535138,16.0764495 C22.9589829,14.7178223 23.0044794,13.3588538 22.999654,11.9985202 C23.0044794,10.639893 22.9586382,9.28058327 22.8535138,7.92024967 C22.8535138,6.20396326 21.4307143,4.81154955 19.6770312,4.81154955 Z M9.6570539,16.2167147 C9.59006571,16.2167147 9.52344358,16.198627 9.46341045,16.1641579 C9.33199647,16.0883942 9.25,15.9430099 9.25,15.7853395 L9.25,8.21477248 C9.25,8.05641954 9.33199647,7.91171773 9.46341045,7.8366366 C9.52344358,7.80148498 9.59043177,7.78305597 9.6570539,7.78305597 C9.7346577,7.78305597 9.81079728,7.80762798 9.87851757,7.8519941 L15.412181,11.6374482 C15.5296849,11.7159422 15.5992355,11.8534771 15.5992355,12.0002266 C15.5992355,12.1462936 15.5296849,12.2838285 15.412181,12.3636876 L9.87851757,16.1477766 C9.81079728,16.1938491 9.7346577,16.2167147 9.6570539,16.2167147 Z" id="path-1"></path>
    </defs>
    <g id="Homepage" stroke="none" stroke-width="1" fill="none" fill-rule="evenodd">
        <g id="index-mobile" transform="translate(-166.000000, -154.000000)">
            <g id="Group-28" transform="translate(97.000000, 150.000000)">
                <g id="Group-7">
                    <g id="_social/Isolated/Youtube" transform="translate(68.000000, 0.000000)">
                        <mask id="mask-2" fill="white">
                            <use xlink:href="#path-1"></use>
                        </mask>
                        <g id="Mask"></g>
                        <g id="_colors/general_white" mask="url(#mask-2)" fill="#FFFFFF" fill-rule="evenodd">
                            <rect id="Rectangle" x="0" y="0" width="24" height="24"></rect>
                        </g>
                    </g>
                </g>
            </g>
        </g>
    </g>
</svg>