<?xml version="1.0" encoding="UTF-8"?>
<svg width="949px" height="100px" viewBox="0 0 949 100" version="1.1" xmlns="http://www.w3.org/2000/svg" xmlns:xlink="http://www.w3.org/1999/xlink">
    <!-- Generator: Sketch 51.1 (57501) - http://www.bohemiancoding.com/sketch -->
    <title>type/onemillion-1</title>
    <desc>Created with Sketch.</desc>
    <defs></defs>
    <g id="Homepage" stroke="none" stroke-width="1" fill="none" fill-rule="evenodd">
        <g id="index" transform="translate(-275.000000, -291.000000)">
            <g id="Group-10">
                <g id="Group-4" transform="translate(275.000000, 291.000000)">
                    <g id="Group-6">
                        <g id="type/onemillion-1">
                            <g>
                                <path d="M51.6742793,27.3462295 C39.5913294,27.3462295 28.9933432,37.1740984 28.9933432,48.377377 C28.9933432,61.8921311 38.9553846,72.4790164 51.6742793,72.4790164 C64.3915349,72.4790164 74.3535763,61.8921311 74.3535763,48.377377 C74.3535763,37.1740984 63.7555902,27.3462295 51.6742793,27.3462295 M51.6742793,77.3970492 C36.2001705,77.3970492 24.0762447,64.6495082 24.0762447,48.377377 C24.0762447,34.3118033 36.7148268,22.4281967 51.6742793,22.4281967 C66.6337318,22.4281967 79.2706748,34.3118033 79.2706748,48.377377 C79.2706748,64.6495082 67.1483881,77.3970492 51.6742793,77.3970492 M51.6742793,4.91836066 C29.1867491,4.91836066 4.91759016,21.4888525 4.91759016,48.2593443 C4.91759016,75.724918 24.1434451,94.9068852 51.6742793,94.9068852 C79.2034744,94.9068852 98.4293294,75.724918 98.4293294,48.2593443 C98.4293294,21.4888525 74.1601705,4.91836066 51.6742793,4.91836066 M51.6742793,99.824918 C21.7307888,99.824918 0.000491709845,78.1380328 0.000491709845,48.2593443 C0.000491709845,21.6495082 23.1813328,0.000327868852 51.6742793,0.000327868852 C80.1672257,0.000327868852 103.346428,21.6495082 103.346428,48.2593443 C103.346428,78.1380328 81.6161307,99.824918 51.6742793,99.824918" id="Fill-1" fill="#FFE66D"></path>
                                <path d="M182.724951,91.9554098 L202.195022,91.9554098 L202.195022,7.87016393 L183.98045,7.87016393 L183.98045,62.2865574 L180.084469,62.2865574 L137.713832,7.87016393 L118.242122,7.87016393 L118.242122,91.9554098 L136.456694,91.9554098 L136.456694,37.4193443 L140.355953,37.4193443 L182.724951,91.9554098 Z M207.11212,96.8734426 L180.317212,96.8734426 L141.373792,46.7455738 L141.373792,96.8734426 L113.325023,96.8734426 L113.325023,2.95213115 L140.118293,2.95213115 L179.063352,52.9701639 L179.063352,2.95213115 L207.11212,2.95213115 L207.11212,96.8734426 Z" id="Fill-4" fill="#8AE1D7"></path>
                                <path d="M226.504993,91.9554098 L272.219257,91.9554098 L272.219257,77.2783607 L244.719564,77.2783607 L244.719564,57.0144262 L270.801493,57.0144262 L270.801493,42.337377 L244.719564,42.337377 L244.719564,22.5455738 L272.219257,22.5455738 L272.219257,7.87016393 L226.504993,7.87016393 L226.504993,91.9554098 Z M277.136355,96.8734426 L221.587894,96.8734426 L221.587894,2.95213115 L277.136355,2.95213115 L277.136355,27.4636066 L249.636663,27.4636066 L249.636663,37.4193443 L275.718592,37.4193443 L275.718592,61.932459 L249.636663,61.932459 L249.636663,72.3603279 L277.136355,72.3603279 L277.136355,96.8734426 Z" id="Fill-6" fill="#FF6679"></path>
                                <path d="M426.48142,91.9554098 L444.587815,91.9554098 L431.877116,7.87016393 L412.639787,7.87016393 L391.792929,59.7357377 L372.103228,7.87016393 L353.100281,7.87016393 L338.827584,91.9554098 L356.802856,91.9554098 L364.237509,40.7259016 L368.267891,40.7259016 L388.685323,91.9554098 L394.585841,91.9554098 L415.947356,40.7259016 L419.989211,40.7259016 L426.48142,91.9554098 Z M450.304761,96.8734426 L422.146178,96.8734426 L416.486597,52.2078689 L397.863907,96.8734426 L385.353169,96.8734426 L367.543439,52.1865574 L361.057786,96.8734426 L333.005739,96.8734426 L348.946972,2.95213115 L375.497665,2.95213115 L391.924052,46.2259016 L409.315829,2.95213115 L436.10582,2.95213115 L450.304761,96.8734426 Z" id="Fill-8" fill="#FFE66D"></path>
                                <path d="M464.31505,91.9559016 L482.529622,91.9559016 L482.529622,7.87065574 L464.31505,7.87065574 L464.31505,91.9559016 Z M459.397952,96.8739344 L487.44672,96.8739344 L487.44672,2.95262295 L459.397952,2.95262295 L459.397952,96.8739344 Z" id="Fill-10" fill="#8AE1D7"></path>
                                <path d="M506.549156,91.9554098 L552.499441,91.9554098 L552.499441,77.2783607 L524.763728,77.2783607 L524.763728,7.87016393 L506.549156,7.87016393 L506.549156,91.9554098 Z M557.416539,96.8734426 L501.632058,96.8734426 L501.632058,2.95213115 L529.680826,2.95213115 L529.680826,72.3603279 L557.416539,72.3603279 L557.416539,96.8734426 Z" id="Fill-12" fill="#FF6679"></path>
                                <path d="M568.19695,91.9554098 L614.147235,91.9554098 L614.147235,77.2783607 L586.411522,77.2783607 L586.411522,7.87016393 L568.19695,7.87016393 L568.19695,91.9554098 Z M619.064333,96.8734426 L563.279851,96.8734426 L563.279851,2.95213115 L591.32862,2.95213115 L591.32862,72.3603279 L619.064333,72.3603279 L619.064333,96.8734426 Z" id="Fill-13" fill="#FFE66D"></path>
                                <path d="M629.845891,91.9559016 L648.060463,91.9559016 L648.060463,7.87065574 L629.845891,7.87065574 L629.845891,91.9559016 Z M624.930432,96.8739344 L652.9792,96.8739344 L652.9792,2.95262295 L624.930432,2.95262295 L624.930432,96.8739344 Z" id="Fill-14" fill="#8AE1D7"></path>
                                <path d="M714.458174,27.3462295 C702.375224,27.3462295 691.777238,37.1740984 691.777238,48.377377 C691.777238,61.8921311 701.739279,72.4790164 714.458174,72.4790164 C727.17543,72.4790164 737.137471,61.8921311 737.137471,48.377377 C737.137471,37.1740984 726.539485,27.3462295 714.458174,27.3462295 M714.458174,77.3970492 C698.984065,77.3970492 686.860139,64.6495082 686.860139,48.377377 C686.860139,34.3118033 699.498721,22.4281967 714.458174,22.4281967 C729.417626,22.4281967 742.054569,34.3118033 742.054569,48.377377 C742.054569,64.6495082 729.932283,77.3970492 714.458174,77.3970492 M714.458174,4.91836066 C691.970644,4.91836066 667.701485,21.4888525 667.701485,48.2593443 C667.701485,75.724918 686.92734,94.9068852 714.458174,94.9068852 C741.987369,94.9068852 761.213224,75.724918 761.213224,48.2593443 C761.213224,21.4888525 736.944065,4.91836066 714.458174,4.91836066 M714.458174,99.824918 C684.514683,99.824918 662.784386,78.1380328 662.784386,48.2593443 C662.784386,21.6495082 685.965227,0.000327868852 714.458174,0.000327868852 C742.95112,0.000327868852 766.130322,21.6495082 766.130322,48.2593443 C766.130322,78.1380328 744.400025,99.824918 714.458174,99.824918" id="Fill-15" fill="#FF6679"></path>
                                <path d="M845.508846,91.9554098 L864.978916,91.9554098 L864.978916,7.87016393 L846.764345,7.87016393 L846.764345,62.2865574 L842.868364,62.2865574 L800.497726,7.87016393 L781.026017,7.87016393 L781.026017,91.9554098 L799.240588,91.9554098 L799.240588,37.4193443 L803.138208,37.4193443 L845.508846,91.9554098 Z M869.896015,96.8734426 L843.101106,96.8734426 L804.157687,46.7472131 L804.157687,96.8734426 L776.108918,96.8734426 L776.108918,2.95213115 L802.902188,2.95213115 L841.847246,52.9701639 L841.847246,2.95213115 L869.896015,2.95213115 L869.896015,96.8734426 Z" id="Fill-16" fill="#FFE66D"></path>
                                <path d="M909.541596,77.7311475 L922.327691,77.7311475 L922.327691,56.247541 L943.689206,56.247541 L943.689206,43.4590164 L922.327691,43.4590164 L922.327691,22.0934426 L909.541596,22.0934426 L909.541596,43.4590164 L888.180082,43.4590164 L888.180082,56.247541 L909.541596,56.247541 L909.541596,77.7311475 Z M927.24479,82.6491803 L904.624498,82.6491803 L904.624498,61.1655738 L883.262983,61.1655738 L883.262983,38.5409836 L904.624498,38.5409836 L904.624498,17.1754098 L927.24479,17.1754098 L927.24479,38.5409836 L948.606304,38.5409836 L948.606304,61.1655738 L927.24479,61.1655738 L927.24479,82.6491803 Z" id="Fill-17" fill="#8AE1D7"></path>
                            </g>
                        </g>
                    </g>
                </g>
            </g>
        </g>
    </g>
</svg>