<?xml version="1.0" encoding="UTF-8"?>
<svg width="120px" height="73px" viewBox="0 0 120 73" version="1.1" xmlns="http://www.w3.org/2000/svg" xmlns:xlink="http://www.w3.org/1999/xlink">
    <!-- Generator: Sketch 51.1 (57501) - http://www.bohemiancoding.com/sketch -->
    <title>Fill-1</title>
    <desc>Created with Sketch.</desc>
    <defs></defs>
    <g id="Homepage" stroke="none" stroke-width="1" fill="none" fill-rule="evenodd">
        <g id="index-mobile" transform="translate(-100.000000, -40.000000)" fill="#FFFFFF" fill-rule="nonzero">
            <path d="M183.680602,40.0076842 L152.414974,40.0076842 L152.414974,40 L147.354647,40 L147.354647,40.0076842 L147.342627,40.0076842 L147.342627,45.0913383 L147.354647,45.0913383 L147.354647,76.5054887 C147.354647,82.6133383 142.416704,87.5729474 136.336882,87.5729474 C130.257059,87.5729474 125.301633,82.6133383 125.301633,76.5054887 L125.301633,44.9102105 L125.301633,40 L120.241306,40 L100,40 L100,44.9102105 L120.241306,44.9102105 L120.241306,76.5054887 C120.241306,85.4191729 127.4641,92.6566015 136.336882,92.6566015 C145.19218,92.6566015 152.414974,85.4191729 152.414974,76.5054887 L152.414974,45.0913383 L183.680602,45.0913383 C200.918056,45.0913383 214.939673,59.1786918 214.939673,76.4956091 C214.939673,93.8289924 200.918056,107.916346 183.680602,107.916346 L163.403236,107.916346 C161.189412,109.858256 158.747211,111.569639 156.129085,113 L183.680602,113 C203.747075,113 220,96.6545865 220,76.4956091 C220,56.3366315 203.747075,40.0076842 183.680602,40.0076842 Z M110.120653,76.5054887 C110.120653,91.0154737 121.874903,102.825007 136.336882,102.825007 C150.781377,102.825007 162.535627,91.0154737 162.535627,76.5054887 L162.535627,55.2597443 L183.680602,55.2597443 C195.329952,55.2597443 204.81902,64.7914587 204.81902,76.4956091 C204.81902,88.2162255 195.329952,97.7490375 183.680602,97.7490375 L171.890292,97.7490375 C170.83583,99.5317744 169.640408,101.226692 168.34118,102.831594 L183.680602,102.831594 C198.125097,102.831594 209.88044,91.0231578 209.88044,76.4956091 C209.88044,61.9856241 198.125097,50.1760902 183.680602,50.1760902 L162.535627,50.1760902 L162.535627,50.168406 L157.476393,50.168406 L157.476393,76.5054887 C157.476393,88.2085414 147.987325,97.7413534 136.336882,97.7413534 C124.670048,97.7413534 115.18098,88.2085414 115.18098,76.5054887 L115.18098,50.3495338 L114.68052,50.3495338 L110.120653,50.3495338 L100,50.3495338 L100,55.2597443 L110.120653,55.2597443 L110.120653,76.5054887 Z M136.336882,112.992316 C116.271501,112.992316 100,96.6633684 100,76.5054887 L100,60.4246316 L105.060327,60.4246316 L105.060327,76.5054887 C105.060327,93.8213083 119.081944,107.908662 136.336882,107.908662 C153.574336,107.908662 167.595953,93.8213083 167.595953,76.5054887 L167.595953,60.3357142 L172.657373,60.3357142 L172.657373,60.3433985 L183.680602,60.3433985 C192.554476,60.3433985 199.758694,67.598391 199.758694,76.4956091 C199.758694,85.4092932 192.554476,92.6653835 183.680602,92.6653835 L174.473452,92.6653835 C175.158579,91.0231578 175.75629,89.3282406 176.230525,87.5806316 L183.680602,87.5806316 C189.759331,87.5806316 194.698367,82.6034586 194.698367,76.4956091 C194.698367,70.3877594 189.759331,65.4270526 183.680602,65.4270526 L172.657373,65.4270526 L172.657373,76.5054887 C172.657373,96.6633684 156.403355,112.992316 136.336882,112.992316 Z" id="Fill-1"></path>
        </g>
    </g>
</svg>