<?xml version="1.0" encoding="UTF-8"?>
<svg width="40px" height="40px" viewBox="0 0 40 40" version="1.1" xmlns="http://www.w3.org/2000/svg" xmlns:xlink="http://www.w3.org/1999/xlink">
    <!-- Generator: Sketch 45.2 (43514) - http://www.bohemiancoding.com/sketch -->
    <title>icon/dribbble-white</title>
    <desc>Created with Sketch.</desc>
    <defs>
        <polygon id="path-1" points="0 39.8852404 0 0 39.938676 0 39.938676 39.8852404"></polygon>
    </defs>
    <g id="Landing-Page" stroke="none" stroke-width="1" fill="none" fill-rule="evenodd">
        <g id="ud-desktop-hovers" transform="translate(-1120.000000, -2060.000000)">
            <g id="Group-35" transform="translate(960.000000, 1941.000000)">
                <g id="Group-34" transform="translate(29.000000, 119.000000)">
                    <g id="icon/dribbble-white" transform="translate(131.000000, 0.000000)">
                        <g>
                            <mask id="mask-2" fill="white">
                                <use xlink:href="#path-1"></use>
                            </mask>
                            <g id="Clip-2"></g>
                            <path d="M33.1724321,9.19673868 C32.8129895,9.68231359 29.9545923,13.3416864 23.6481115,15.9129756 C24.0449059,16.7244042 24.4253937,17.5496307 24.7796794,18.3804321 C24.9052544,18.6747875 25.0276237,18.9676098 25.1470662,19.2594564 C30.8227456,18.5467038 36.4619094,19.6888641 37.0242787,19.8077491 C36.9866481,15.787122 35.5480418,12.0952753 33.1724321,9.19673868 M15.9722927,3.40802787 C16.4436516,4.03855052 19.5416307,8.25165157 22.3366132,13.3800139 C28.4018397,11.10977 30.9695052,7.66321951 31.2762648,7.22684321 C28.2641394,4.55799303 24.3033031,2.9345784 19.9693659,2.9345784 C18.5931986,2.9345784 17.2549408,3.09931707 15.9722927,3.40802787 M3.27278049,16.4798049 C4.03556794,16.4898397 11.062885,16.5203624 19.041561,14.4044042 C16.2153589,9.38712195 13.1672753,5.16886411 12.7176585,4.55297561 C7.94567247,6.80078049 4.37870383,11.1939512 3.27278049,16.4798049 M7.2973101,31.3581324 C7.68365157,30.697784 12.3649059,22.9570174 21.1618397,20.1172962 C21.3841394,20.0456585 21.6082509,19.9782021 21.8338955,19.9147875 C21.4057422,18.947122 20.9395401,17.9783415 20.4511777,17.0239164 C11.9329895,19.5698397 3.66748432,19.4633589 2.92114286,19.4481672 C2.91584669,19.6211289 2.91250174,19.7943693 2.91250174,19.9685854 C2.91250174,24.3436376 4.57312892,28.3383415 7.2973101,31.3581324 M26.6320836,35.6490035 C26.3784251,34.1545087 25.3880418,28.946007 22.993338,22.7313728 C22.9558467,22.7441951 22.9183554,22.7563206 22.8808641,22.7694216 C13.2602369,26.1172962 9.80671777,32.7802927 9.49954007,33.4069129 C12.3916655,35.6590383 16.02623,37.0028711 19.9693659,37.0028711 C22.3321533,37.0028711 24.5841394,36.520223 26.6320836,35.6490035 M36.8104808,22.6725575 C36.2269268,22.4885854 31.5310383,21.0899791 26.1859512,21.9443345 C28.416892,28.0668432 29.3249059,33.053324 29.4995401,34.0894216 C33.3262997,31.5054495 36.0502021,27.4120697 36.8104808,22.6725575 M19.9693659,39.8852404 C8.95821603,39.8852404 -0.000111498258,30.9390383 -0.000111498258,19.9428014 C-0.000111498258,8.94614634 8.95821603,-5.57491289e-05 19.9693659,-5.57491289e-05 C30.9803763,-5.57491289e-05 39.9387038,8.94614634 39.9387038,19.9428014 C39.9387038,30.9390383 30.9803763,39.8852404 19.9693659,39.8852404" id="Fill-1" fill="#FFFFFF" mask="url(#mask-2)"></path>
                        </g>
                    </g>
                </g>
            </g>
        </g>
    </g>
</svg>