<?xml version="1.0" encoding="UTF-8"?>
<svg width="220px" height="52px" viewBox="0 0 220 52" version="1.1" xmlns="http://www.w3.org/2000/svg" xmlns:xlink="http://www.w3.org/1999/xlink">
    <!-- Generator: Sketch 45.2 (43514) - http://www.bohemiancoding.com/sketch -->
    <title>logo/ud-blue-white-horizontal</title>
    <desc>Created with Sketch.</desc>
    <defs></defs>
    <g id="Landing-Page" stroke="none" stroke-width="1" fill="none" fill-rule="evenodd">
        <g id="ud-mobile-logo-horizontal" transform="translate(-30.000000, -40.000000)">
            <g id="logo/ud-blue-white-horizontal" transform="translate(30.000000, 40.000000)">
                <g>
                    <path d="M59.1154667,0.00535522388 L37.0282386,0.00535522388 L37.0282386,-7.76119403e-05 L33.4534316,-7.76119403e-05 L33.4534316,0.00535522388 L33.4449404,0.00535522388 L33.4449404,3.59956418 L33.4534316,3.59956418 L33.4534316,25.8097731 C33.4534316,30.1281015 29.9650807,33.634609 25.6700632,33.634609 C21.3750456,33.634609 17.8743439,30.1281015 17.8743439,25.8097731 L17.8743439,3.47150448 L17.8743439,-7.76119403e-05 L14.2995368,-7.76119403e-05 L0.00030877193,-7.76119403e-05 L0.00030877193,3.47150448 L14.2995368,3.47150448 L14.2995368,25.8097731 C14.2995368,32.1118627 19.401993,37.2288179 25.6700632,37.2288179 C31.9257825,37.2288179 37.0282386,32.1118627 37.0282386,25.8097731 L37.0282386,3.59956418 L59.1154667,3.59956418 C71.2926596,3.59956418 81.1980632,13.5595045 81.1980632,25.8027881 C81.1980632,38.0577134 71.2926596,48.0176537 59.1154667,48.0176537 L44.7907649,48.0176537 C43.2268351,49.390609 41.5015719,50.6005791 39.6520281,51.6118627 L59.1154667,51.6118627 C73.291186,51.6118627 84.7728702,40.0554448 84.7728702,25.8027881 C84.7728702,11.5501313 73.291186,0.00535522388 59.1154667,0.00535522388 L59.1154667,0.00535522388 Z M7.14992281,25.8097731 C7.14992281,36.0685194 15.4535719,44.4180119 25.6700632,44.4180119 C35.8742035,44.4180119 44.1778526,36.0685194 44.1778526,25.8097731 L44.1778526,10.7887582 L59.1154667,10.7887582 C67.3450105,10.7887582 74.0484491,17.527803 74.0484491,25.8027881 C74.0484491,34.0894149 67.3450105,40.8292358 59.1154667,40.8292358 L50.7863439,40.8292358 C50.0414316,42.0896537 49.1969404,43.2879821 48.2791158,44.4226687 L59.1154667,44.4226687 C69.319607,44.4226687 77.6240281,36.0739522 77.6240281,25.8027881 C77.6240281,15.5440418 69.319607,7.19454925 59.1154667,7.19454925 L44.1778526,7.19454925 L44.1778526,7.18911642 L40.6038175,7.18911642 L40.6038175,25.8097731 C40.6038175,34.0839821 33.9003789,40.823803 25.6700632,40.823803 C17.4281684,40.823803 10.7247298,34.0839821 10.7247298,25.8097731 L10.7247298,7.31717612 L10.371186,7.31717612 L7.14992281,7.31717612 L0.00030877193,7.31717612 L0.00030877193,10.7887582 L7.14992281,10.7887582 L7.14992281,25.8097731 Z M25.6700632,51.6064299 C11.4951158,51.6064299 0.00030877193,40.0616537 0.00030877193,25.8097731 L0.00030877193,14.4404 L3.57511579,14.4404 L3.57511579,25.8097731 C3.57511579,38.0522806 13.4805193,48.0122209 25.6700632,48.0122209 C37.8472561,48.0122209 47.7526596,38.0522806 47.7526596,25.8097731 L47.7526596,14.3775343 L51.3282386,14.3775343 L51.3282386,14.3829672 L59.1154667,14.3829672 C65.3843088,14.3829672 70.4736421,19.5123403 70.4736421,25.8027881 C70.4736421,32.1048776 65.3843088,37.2350269 59.1154667,37.2350269 L52.611186,37.2350269 C53.095186,36.0739522 53.5174316,34.8756239 53.8524491,33.6400418 L59.1154667,33.6400418 C63.4097123,33.6400418 66.8988351,30.1211164 66.8988351,25.8027881 C66.8988351,21.4844597 63.4097123,17.9771761 59.1154667,17.9771761 L51.3282386,17.9771761 L51.3282386,25.8097731 C51.3282386,40.0616537 39.8457825,51.6064299 25.6700632,51.6064299 L25.6700632,51.6064299 Z" id="Fill-1" fill="#369BD8"></path>
                    <path d="M214.200954,47.8124478 C212.365305,47.8124478 211.044533,47.0929851 210.292674,46.4286269 L210.806007,44.6582985 C211.540112,45.3591343 212.696463,46.1515522 214.200954,46.1515522 C215.300954,46.1515522 216.146218,45.5981791 216.146218,44.6210448 C216.146218,43.6982388 215.632112,43.218597 213.832744,42.776209 C211.521586,42.2034328 210.603761,40.9686269 210.603761,39.3814627 C210.603761,37.5738806 212.034919,36.2630149 214.401656,36.2630149 C215.760253,36.2630149 216.972182,36.7791343 217.704744,37.3519104 L217.227691,38.9196716 C216.457305,38.4035522 215.355761,37.9603881 214.383902,37.9603881 C213.302428,37.9603881 212.658639,38.4400299 212.658639,39.234 C212.658639,39.8789552 213.044604,40.3772239 214.549867,40.7466567 C217.118077,41.3931642 218.219621,42.4805075 218.219621,44.3998507 C218.219621,46.7786567 216.27513,47.8124478 214.200954,47.8124478 L214.200954,47.8124478 Z M198.136323,41.5957313 L199.861586,41.5957313 C201.255691,41.5957313 201.75127,40.8568657 201.75127,39.8789552 C201.75127,38.883194 201.255691,38.1272537 199.861586,38.1272537 L198.136323,38.1272537 L198.136323,41.5957313 Z M205.018077,47.5912537 L202.558709,47.5912537 L199.513446,43.1821194 L198.136323,43.1821194 L198.136323,47.5912537 L195.898498,47.5912537 L195.898498,36.5222388 L200.228253,36.5222388 C202.834288,36.5222388 203.953586,38.0713731 203.953586,39.8611045 C203.953586,41.3551343 203.164674,42.5356119 201.75127,42.9422985 L205.018077,47.5912537 Z M182.222989,47.5912537 L182.222989,36.5222388 L189.396533,36.5222388 L189.396533,38.2747164 L184.461586,38.2747164 L184.461586,40.8754925 L188.479481,40.8754925 L188.479481,42.6287463 L184.461586,42.6287463 L184.461586,45.8387761 L189.396533,45.8387761 L189.396533,47.5912537 L182.222989,47.5912537 Z M173.812042,47.5912537 L168.049586,40.2856418 L168.049586,47.5912537 L166.050288,47.5912537 L166.050288,36.5222388 L167.609586,36.5222388 L173.372042,43.8278507 L173.372042,36.5222388 L175.370568,36.5222388 L175.370568,47.5912537 L173.812042,47.5912537 Z M154.702147,47.9055821 C151.5272,47.9055821 148.847832,45.6354328 148.847832,42.0559701 C148.847832,38.4780597 151.636042,36.2816418 154.848042,36.2816418 C156.297726,36.2816418 157.838498,36.705403 158.756323,37.4070149 L158.756323,39.455194 C157.838498,38.6806269 156.702218,38.09 155.068042,38.09 C152.775411,38.09 151.178288,39.6026567 151.178288,42.1491045 C151.178288,44.6388955 152.737586,46.2074328 154.939902,46.2074328 C155.783621,46.2074328 156.499972,46.0421194 157.068112,45.7456418 L157.068112,43.5872537 L155.123621,43.5872537 L155.123621,41.9263582 L159.215621,41.9263582 L159.215621,46.8166866 C158.59113,47.0751343 156.866639,47.9055821 154.702147,47.9055821 L154.702147,47.9055821 Z M140.311832,47.5912537 L142.549656,47.5912537 L142.549656,36.5222388 L140.311832,36.5222388 L140.311832,47.5912537 Z M130.03127,47.8124478 C128.195621,47.8124478 126.874077,47.0929851 126.121446,46.4286269 L126.635551,44.6582985 C127.369656,45.3591343 128.526007,46.1515522 130.03127,46.1515522 C131.13127,46.1515522 131.975761,45.5981791 131.975761,44.6210448 C131.975761,43.6982388 131.460884,43.218597 129.66306,42.776209 C127.35113,42.2034328 126.433305,40.9686269 126.433305,39.3814627 C126.433305,37.5738806 127.864463,36.2630149 130.231972,36.2630149 C131.589796,36.2630149 132.801726,36.7791343 133.53506,37.3519104 L133.058007,38.9196716 C132.286849,38.4035522 131.186077,37.9603881 130.213446,37.9603881 C129.131972,37.9603881 128.488954,38.4400299 128.488954,39.234 C128.488954,39.8789552 128.874919,40.3772239 130.379411,40.7466567 C132.948393,41.3931642 134.049165,42.4805075 134.049165,44.3998507 C134.049165,46.7786567 132.103902,47.8124478 130.03127,47.8124478 L130.03127,47.8124478 Z M113.105937,47.5912537 L113.105937,36.5222388 L120.279481,36.5222388 L120.279481,38.2747164 L115.344533,38.2747164 L115.344533,40.8754925 L119.3632,40.8754925 L119.3632,42.6287463 L115.344533,42.6287463 L115.344533,45.8387761 L120.279481,45.8387761 L120.279481,47.5912537 L113.105937,47.5912537 Z M100.437796,38.3298209 L98.914007,38.3298209 L98.914007,45.7836716 L100.437796,45.7836716 C103.446779,45.7836716 104.510498,44.2702388 104.510498,42.0559701 C104.510498,39.8417015 103.446779,38.3298209 100.437796,38.3298209 L100.437796,38.3298209 Z M100.548182,47.5912537 L96.6761825,47.5912537 L96.6761825,36.5222388 L100.548182,36.5222388 C104.95127,36.5222388 106.804674,39.0112537 106.804674,42.0559701 C106.804674,45.1006866 104.95127,47.5912537 100.548182,47.5912537 L100.548182,47.5912537 Z M207.3192,5.04749254 L202.380393,5.04749254 L202.380393,26.9068955 L207.247411,26.9068955 C214.422498,26.9068955 217.848323,23.3188955 217.848323,15.7781194 C217.848323,9.03519403 213.954709,5.04749254 207.3192,5.04749254 L207.3192,5.04749254 Z M207.49906,28.248806 L200.865095,28.248806 L200.865095,3.70635821 L207.571621,3.70635821 C214.92734,3.70635821 219.397586,8.2381194 219.397586,15.7051642 C219.397586,24.115194 215.468463,28.248806 207.49906,28.248806 L207.49906,28.248806 Z M179.695691,3.70635821 L192.784533,3.70635821 L192.784533,5.04749254 L181.210989,5.04749254 L181.210989,14.8716119 L191.378077,14.8716119 L191.378077,16.2135224 L181.210989,16.2135224 L181.210989,26.9068955 L192.892604,26.9068955 L192.892604,28.248806 L179.695691,28.248806 L179.695691,3.70635821 Z M166.24327,28.248806 L164.691691,28.248806 L164.691691,5.04749254 L156.903691,5.04749254 L156.903691,3.70635821 L173.994218,3.70635821 L173.994218,5.04749254 L166.24327,5.04749254 L166.24327,28.248806 Z M149.690779,28.248806 L151.206077,28.248806 L151.206077,3.70635821 L149.690779,3.70635821 L149.690779,28.248806 Z M124.447902,6.06265672 L124.447902,28.248806 L122.932604,28.248806 L122.932604,3.70635821 L124.518919,3.70635821 L139.157025,25.3119701 L139.157025,3.70635821 L140.672323,3.70635821 L140.672323,28.248806 L139.446498,28.248806 L124.447902,6.06265672 Z M105.258498,28.6834328 C99.9576561,28.6834328 96.6761825,26.1098209 96.6761825,20.4542388 L96.6761825,3.70635821 L98.1914807,3.70635821 L98.1914807,20.5264179 C98.1914807,25.0946567 100.714919,27.3787761 105.330288,27.3787761 C110.090007,27.3787761 112.505375,25.0946567 112.505375,20.5264179 L112.505375,3.70635821 L114.019902,3.70635821 L114.019902,20.3820597 C114.019902,26.0733433 110.702147,28.6834328 105.258498,28.6834328 L105.258498,28.6834328 Z" id="Fill-4" fill="#FFFFFF"></path>
                </g>
            </g>
        </g>
    </g>
</svg>