<?xml version="1.0" encoding="utf-8"?>
<!-- Generator: Adobe Illustrator 21.1.0, SVG Export Plug-In . SVG Version: 6.00 Build 0)  -->
<svg version="1.1" id="Layer_1" xmlns="http://www.w3.org/2000/svg" xmlns:xlink="http://www.w3.org/1999/xlink" x="0px" y="0px"
	 viewBox="0 0 579.2 612" style="enable-background:new 0 0 579.2 612;" xml:space="preserve">
<style type="text/css">
	.st0{fill:#369BD8;}
	.st1{fill:#FFFFFF;}
</style>
<g>
	<path class="st0" d="M175.6,350.4c-96.9,0-175.2-78.3-175.2-175.2V98h24.4v77.2c0,83.1,67.8,150.8,150.8,150.8
		s150.8-67.8,150.8-150.8V97.6h24.4l0,0H404c43,0,77.6,35,77.6,77.6c0,43-34.6,77.6-77.6,77.6h-44.4c3.3-8,6.2-16,8.4-24.4H404
		c29.5,0,53.2-24,53.2-53.2c0-29.5-23.7-53.2-53.2-53.2h-53.2v53.2C350.8,272.1,272.1,350.4,175.6,350.4z M48.8,175.2
		c0,69.6,56.8,126.4,126.4,126.4s126.4-56.8,126.4-126.4v-102h102c56.1,0,102,45.9,102,102c0,56.5-45.9,102-102,102h-56.8
		c-5.1,8.7-10.9,16.8-17.1,24.4h73.9c69.6,0,126.4-56.8,126.4-126.4S473.2,48.8,403.6,48.8h-102l0,0h-24.4v126.4
		c0,56.1-45.9,102-102,102c-56.5,0-102-45.9-102-102V49.5H71H49.2H0.4v23.7h48.8v102H48.8z M404,0H253.2l0,0h-24.4l0,0l0,0v24.4l0,0
		v150.8c0,29.5-23.7,53.2-53.2,53.2s-53.2-23.7-53.2-53.2V23.3V0H98H0.4v23.7H98v151.9c0,43,35,77.6,77.6,77.6
		c42.6,0,77.6-34.6,77.6-77.6V24.8H404c83.1,0,150.8,67.8,150.8,150.8c0,83.4-67.8,150.8-150.8,150.8h-98
		c-10.6,9.5-22.6,17.5-35,24.4h133c96.9,0,175.2-78.7,175.2-175.2C579.2,78.3,500.9,0,404,0z"/>
	<path class="st1" d="M40.4,522C15.3,522,0,510,0,483.4v-78.7h7.3v79.1c0,21.5,12,32.1,33.5,32.1c22.6,0,33.9-10.6,33.9-32.1v-79.1
		H82V483C82,509.6,66.3,522,40.4,522z M131.1,415.7v104.2h-7.3V404.7h7.7L200.7,506V404.7h7.3v115.1h-5.8L131.1,415.7z M257.6,404.7
		v115.1h-7.3V404.7H257.6z M328.2,519.8h-7.3V410.9h-36.8v-6.2h80.5v6.2h-36.4V519.8z M392,404.7h61.9v6.2h-54.6v46.3h48.1v6.2
		h-48.5v50.3h55v6.2h-62.3V404.7H392z M523.1,519.8h-31.3V404.7h31.7c34.6,0,55.7,21.1,55.7,56.5
		C579.2,500.5,560.6,519.8,523.1,519.8z M522,410.9h-23.3v102.7h22.9c33.9,0,49.9-16.8,49.9-52.1C571.9,429.9,553.3,410.9,522,410.9
		z M18.2,610.5H0v-52.1h18.2c20.8,0,29.5,11.7,29.5,25.9C47.7,598.9,39,610.5,18.2,610.5z M17.8,567.2h-7.3v35h7.3
		c14.2,0,19.3-6.9,19.3-17.5C37.2,574.1,32.1,567.2,17.8,567.2z M77.6,610.5v-52.1h33.9v8.4H88.2v12.4h18.9v8.4H88.2v14.9h23.3v8.4
		H77.6V610.5z M157.4,611.6c-8.7,0-14.9-3.3-18.6-6.6l2.6-8.4c3.6,3.3,8.7,6.9,16,6.9c5.1,0,9.1-2.6,9.1-7.3c0-4.4-2.6-6.6-10.9-8.7
		c-10.9-2.5-15.3-8.4-15.3-16c0-8.4,6.9-14.6,17.8-14.6c6.6,0,12,2.6,15.7,5.1l-2.2,7.3c-3.6-2.6-8.7-4.4-13.5-4.4
		c-5.1,0-8,2.2-8,5.8c0,2.9,1.8,5.5,8.7,6.9c12,2.9,17.5,8,17.5,17.1C176.3,606.9,167.2,611.6,157.4,611.6z M205.8,610.5v-52.1h10.6
		v52.1H205.8z M273.9,612c-14.9,0-27.7-10.6-27.7-27.3c0-16.8,13.1-27,28.4-27c6.9,0,14.2,1.8,18.6,5.1v9.5
		c-4.4-3.6-9.8-6.6-17.5-6.6c-10.9,0-18.2,6.9-18.2,18.9c0,11.7,7.3,18.9,17.8,18.9c4,0,7.3-0.7,10.2-2.2v-10.2h-9.1v-7.7h19.3v22.9
		C292.2,608.4,284.1,612,273.9,612z M363.9,610.5l-27.3-34.2v34.2h-9.5v-52.1h7.3l27.3,34.2v-34.2h9.5v52.1H363.9z M403.6,610.5
		v-52.1h33.9v8.4h-23.3v12.4h18.9v8.4h-18.9v14.9h23.3v8.4h-33.9V610.5z M511.5,610.5h-11.7l-14.2-20.8H479v20.8h-10.9v-52.1h20.4
		c12.4,0,17.5,7.3,17.5,15.7c0,6.9-3.6,12.4-10.6,14.6L511.5,610.5z M478.7,582.5h8c6.6,0,8.7-3.6,8.7-8c0-4.7-2.2-8.4-8.7-8.4h-8
		V582.5z M554.8,611.6c-8.7,0-14.9-3.3-18.6-6.6l2.6-8.4c3.6,3.3,8.7,6.9,16,6.9c5.1,0,9.1-2.6,9.1-7.3c0-4.4-2.6-6.6-10.9-8.7
		c-10.9-2.5-15.3-8.4-15.3-16c0-8.4,6.9-14.6,17.8-14.6c6.6,0,12,2.6,15.7,5.1l-2.2,7.3c-3.6-2.6-8.7-4.4-13.5-4.4
		c-5.1,0-8,2.2-8,5.8c0,2.9,1.8,5.5,8.7,6.9c12,2.9,17.5,8,17.5,17.1C573.8,606.9,564.3,611.6,554.8,611.6z"/>
</g>
</svg>
