<?xml version="1.0" encoding="UTF-8" standalone="no"?>
<svg width="1352px" height="816px" viewBox="0 0 1352 816" version="1.1" xmlns="http://www.w3.org/2000/svg" xmlns:xlink="http://www.w3.org/1999/xlink">
    <!-- Generator: Sketch 45.2 (43514) - http://www.bohemiancoding.com/sketch -->
    <title>pattern-bottom-mask</title>
    <desc>Created with Sketch.</desc>
    <defs>
        <rect id="path-1" x="0" y="0" width="1352" height="816"></rect>
        <linearGradient x1="0.25781251%" y1="49.7500002%" x2="101.257813%" y2="49.7500002%" id="linearGradient-3">
            <stop stop-color="#8641DC" offset="0%"></stop>
            <stop stop-color="#53A0FD" offset="47.5247532%"></stop>
            <stop stop-color="#256EFF" offset="100%"></stop>
        </linearGradient>
    </defs>
    <g id="Landing-Page" stroke="none" stroke-width="1" fill="none" fill-rule="evenodd">
        <g id="_patterns-copy" transform="translate(0.000000, -1472.000000)">
            <g id="pattern-bottom-mask" transform="translate(0.000000, 1472.000000)">
                <mask id="mask-2" fill="white">
                    <use xlink:href="#path-1"></use>
                </mask>
                <g id="Rectangle-4"></g>
                <g id="pattern-bottom" opacity="0.600000024" mask="url(#mask-2)" stroke="url(#linearGradient-3)">
                    <g transform="translate(584.780213, 691.743119) rotate(60.000000) translate(-584.780213, -691.743119) translate(-49.719787, -300.756881)">
                        <path d="M739.920158,531.533698 C89.3813811,561.445829 -351.306177,711.006482 -277.858251,1069.95205 C-204.410324,1428.89762 1369.47381,1578.45827 1516.36966,1339.16123 C1663.26552,1099.86418 1390.45893,501.621567 739.920158,531.533698 Z" id="duplicate_120_original_original_Path-2_6701545_28547072" opacity="0.851667632" transform="translate(634.657766, 992.968937) rotate(79.046661) translate(-634.657766, -992.968937) "></path>
                        <path d="M739.119683,535.025377 C93.5279696,564.711163 -343.808352,713.140091 -270.918965,1069.36952 C-198.029578,1425.59895 1363.88586,1574.02787 1509.66463,1336.54159 C1655.44341,1099.0553 1384.7114,505.339592 739.119683,535.025377 Z" id="duplicate_119_original_original_Path-2_6701545_28547072" opacity="0.98053774" transform="translate(634.657766, 992.968937) rotate(78.871638) translate(-634.657766, -992.968937) "></path>
                        <path d="M738.319209,538.517055 C97.674558,567.976495 -336.310528,715.273699 -263.97968,1068.78699 C-191.648833,1422.30028 1358.2979,1569.59748 1502.9596,1333.92196 C1647.62129,1098.24643 1378.96386,509.057614 738.319209,538.517055 Z" id="duplicate_118_original_original_Path-2_6701545_28547072" opacity="0.133188335" transform="translate(634.657766, 992.968937) rotate(78.671928) translate(-634.657766, -992.968937) "></path>
                        <path d="M737.518734,542.00873 C101.821147,571.241826 -328.812703,717.407306 -257.040395,1068.20446 C-185.268087,1419.00161 1352.70995,1565.16709 1496.25456,1331.30232 C1639.79918,1097.43755 1373.21632,512.775634 737.518734,542.00873 Z" id="duplicate_117_original_original_Path-2_6701545_28547072" opacity="0.873335519" transform="translate(634.657766, 992.968937) rotate(78.447657) translate(-634.657766, -992.968937) "></path>
                        <path d="M736.71826,545.500403 C105.967735,574.507154 -321.314879,719.540911 -250.10111,1067.62193 C-178.887341,1415.70294 1347.12199,1560.7367 1489.54953,1328.68269 C1631.97707,1096.62868 1367.46878,516.493651 736.71826,545.500403 Z" id="duplicate_116_original_original_Path-2_6701545_28547072" opacity="0.0757069404" transform="translate(634.657766, 992.968937) rotate(78.198967) translate(-634.657766, -992.968937) "></path>
                        <path d="M735.917785,548.992074 C110.114323,577.772481 -313.817054,721.674515 -243.161824,1067.0394 C-172.506595,1412.40428 1341.53404,1556.30632 1482.8445,1326.06306 C1624.15496,1095.81981 1361.72125,520.211667 735.917785,548.992074 Z" id="duplicate_115_original_original_Path-2_6701545_28547072" opacity="0.219250612" transform="translate(634.657766, 992.968937) rotate(77.926015) translate(-634.657766, -992.968937) "></path>
                        <path d="M735.117311,552.483742 C114.260912,581.037805 -306.319229,723.808118 -236.222539,1066.45687 C-166.125849,1409.10562 1335.94608,1551.87593 1476.13946,1323.44343 C1616.33284,1095.01093 1355.97371,523.929679 735.117311,552.483742 Z" id="duplicate_114_original_original_Path-2_6701545_28547072" opacity="0.305437789" transform="translate(634.657766, 992.968937) rotate(77.628974) translate(-634.657766, -992.968937) "></path>
                        <path d="M734.316836,555.975408 C118.4075,584.303127 -298.821405,725.941719 -229.283254,1065.87434 C-159.745103,1405.80696 1330.35813,1547.44555 1469.43443,1320.82381 C1608.51073,1094.20206 1350.22617,527.64769 734.316836,555.975408 Z" id="duplicate_113_original_original_Path-2_6701545_28547072" opacity="0.839150429" transform="translate(634.657766, 992.968937) rotate(77.308030) translate(-634.657766, -992.968937) "></path>
                        <path d="M733.516362,559.467072 C122.554089,587.568447 -291.32358,728.075319 -222.343968,1065.29181 C-153.364357,1402.5083 1324.77017,1543.01518 1462.7294,1318.20418 C1600.68862,1093.39319 1344.47863,531.365698 733.516362,559.467072 Z" id="duplicate_112_original_original_Path-2_6701545_28547072" opacity="0.793303458" transform="translate(634.657766, 992.968937) rotate(76.963387) translate(-634.657766, -992.968937) "></path>
                        <path d="M732.715887,562.958733 C126.700677,590.833764 -283.825755,730.208917 -215.404683,1064.70928 C-146.983611,1399.20965 1319.18222,1538.5848 1456.02436,1315.58456 C1592.86651,1092.58431 1338.7311,535.083703 732.715887,562.958733 Z" id="duplicate_111_original_original_Path-2_6701545_28547072" opacity="0.101557661" transform="translate(634.657766, 992.968937) rotate(76.595263) translate(-634.657766, -992.968937) "></path>
                        <path d="M731.915413,566.450392 C130.847266,594.099079 -276.327931,732.342514 -208.465398,1064.12676 C-140.602865,1395.911 1313.59426,1534.15443 1449.31933,1312.96494 C1585.0444,1091.77544 1332.98356,538.801705 731.915413,566.450392 Z" id="duplicate_110_original_original_Path-2_6701545_28547072" opacity="0.531877024" transform="translate(634.657766, 992.968937) rotate(76.203889) translate(-634.657766, -992.968937) "></path>
                        <path d="M731.114938,569.942049 C134.993854,597.364392 -268.830106,734.476109 -201.526113,1063.54423 C-134.222119,1392.61235 1308.00631,1529.72407 1442.6143,1310.34532 C1577.22228,1090.96657 1327.23602,542.519705 731.114938,569.942049 Z" id="duplicate_109_original_original_Path-2_6701545_28547072" opacity="0.0343483714" transform="translate(634.657766, 992.968937) rotate(75.789513) translate(-634.657766, -992.968937) "></path>
                        <path d="M730.314464,573.433702 C139.140443,600.629702 -261.332281,736.609702 -194.586827,1062.9617 C-127.841373,1389.3137 1302.41836,1525.2937 1435.90926,1307.7257 C1569.40017,1090.1577 1321.48849,546.237702 730.314464,573.433702 Z" id="duplicate_108_original_original_Path-2_6701545_28547072" opacity="0.0514311476" transform="translate(634.657766, 992.968937) rotate(75.352398) translate(-634.657766, -992.968937) "></path>
                        <path d="M729.51399,576.925353 C143.287031,603.89501 -253.834457,738.743294 -187.647542,1062.37918 C-121.460627,1386.01506 1296.8304,1520.86334 1429.20423,1305.10609 C1561.57806,1089.34883 1315.74095,549.955696 729.51399,576.925353 Z" id="duplicate_107_original_original_Path-2_6701545_28547072" opacity="0.179941715" transform="translate(634.657766, 992.968937) rotate(74.892818) translate(-634.657766, -992.968937) "></path>
                        <path d="M728.713515,580.417001 C147.43362,607.160315 -246.336632,740.876884 -180.708257,1061.79665 C-115.079881,1382.71642 1291.24245,1516.43299 1422.4992,1302.48647 C1553.75595,1088.53996 1309.99341,553.673688 728.713515,580.417001 Z" id="duplicate_106_original_original_Path-2_6701545_28547072" opacity="0.90866041" transform="translate(634.657766, 992.968937) rotate(74.411064) translate(-634.657766, -992.968937) "></path>
                        <path d="M727.913041,583.908647 C151.580208,610.425618 -238.838807,743.010473 -173.768971,1061.21412 C-108.699135,1379.41778 1285.65449,1512.00263 1415.79416,1299.86686 C1545.93383,1087.7311 1304.24587,557.391676 727.913041,583.908647 Z" id="duplicate_105_original_original_Path-2_6701545_28547072" opacity="0.185739228" transform="translate(634.657766, 992.968937) rotate(73.907441) translate(-634.657766, -992.968937) "></path>
                        <path d="M727.112566,587.400289 C155.726797,613.690918 -231.340983,745.144059 -166.829686,1060.6316 C-102.31839,1376.11914 1280.06654,1507.57228 1409.08913,1297.24726 C1538.11172,1086.92223 1298.49834,561.109661 727.112566,587.400289 Z" id="duplicate_104_original_original_Path-2_6701545_28547072" opacity="0.429154493" transform="translate(634.657766, 992.968937) rotate(73.382266) translate(-634.657766, -992.968937) "></path>
                        <path d="M726.312092,590.891929 C159.873385,616.956215 -223.843158,747.277644 -159.890401,1060.04908 C-95.9376436,1372.82051 1274.47858,1503.14194 1402.3841,1294.62765 C1530.28961,1086.11336 1292.7508,564.827643 726.312092,590.891929 Z" id="duplicate_103_original_original_Path-2_6701545_28547072" opacity="0.960826743" transform="translate(634.657766, 992.968937) rotate(72.835872) translate(-634.657766, -992.968937) "></path>
                        <path d="M725.511617,594.383565 C164.019974,620.221509 -216.345333,749.411227 -152.951115,1059.46655 C-89.5568976,1369.52188 1268.89063,1498.71159 1395.67906,1292.00804 C1522.4675,1085.3045 1287.00326,568.545621 725.511617,594.383565 Z" id="duplicate_102_original_original_Path-2_6701545_28547072" opacity="0.374789946" transform="translate(634.657766, 992.968937) rotate(72.268603) translate(-634.657766, -992.968937) "></path>
                        <path d="M724.711143,597.875198 C168.166562,623.4868 -208.847509,751.544808 -146.01183,1058.88403 C-83.1761517,1366.22325 1263.30267,1494.28126 1388.97403,1289.38844 C1514.64539,1084.49563 1281.25572,572.263597 724.711143,597.875198 Z" id="duplicate_101_original_original_Path-2_6701545_28547072" opacity="0.101211894" transform="translate(634.657766, 992.968937) rotate(71.680818) translate(-634.657766, -992.968937) "></path>
                        <path d="M723.910668,601.366828 C172.313151,626.752088 -201.349684,753.678387 -139.072545,1058.30151 C-76.7954058,1362.92462 1257.71472,1489.85092 1382.269,1286.76884 C1506.82327,1083.68677 1275.50819,575.981568 723.910668,601.366828 Z" id="duplicate_100_original_original_Path-2_6701545_28547072" opacity="0.912656407" transform="translate(634.657766, 992.968937) rotate(71.072887) translate(-634.657766, -992.968937) "></path>
                        <path d="M723.110194,604.858455 C176.459739,630.017373 -193.851859,755.811964 -132.13326,1057.71898 C-70.4146599,1359.626 1252.12676,1485.42059 1375.56396,1284.14925 C1499.00116,1082.8779 1269.76065,579.699537 723.110194,604.858455 Z" id="duplicate_99_original_original_Path-2_6701545_28547072" opacity="0.590569678" transform="translate(634.657766, 992.968937) rotate(70.445196) translate(-634.657766, -992.968937) "></path>
                        <path d="M722.309719,608.350078 C180.606328,633.282655 -186.354035,757.945539 -125.193974,1057.13646 C-64.0339139,1356.32738 1246.53881,1480.99027 1368.85893,1281.52965 C1491.17905,1082.06904 1264.01311,583.417501 722.309719,608.350078 Z" id="duplicate_98_original_original_Path-2_6701545_28547072" opacity="0.889081465" transform="translate(634.657766, 992.968937) rotate(69.798140) translate(-634.657766, -992.968937) "></path>
                        <path d="M721.509245,611.841698 C184.752916,636.547934 -178.85621,760.079112 -118.254689,1056.55394 C-57.653168,1353.02877 1240.95085,1476.55995 1362.1539,1278.91006 C1483.35694,1081.26018 1258.26557,587.135462 721.509245,611.841698 Z" id="duplicate_97_original_original_Path-2_6701545_28547072" opacity="0.000427711289" transform="translate(634.657766, 992.968937) rotate(69.132128) translate(-634.657766, -992.968937) "></path>
                        <path d="M720.70877,615.333314 C188.899504,639.813209 -171.358385,762.212683 -111.315404,1055.97142 C-51.2724221,1349.73016 1235.3629,1472.12963 1355.44886,1276.29047 C1475.53483,1080.45131 1252.51804,590.853419 720.70877,615.333314 Z" id="duplicate_96_original_original_Path-2_6701545_28547072" opacity="0.218523289" transform="translate(634.657766, 992.968937) rotate(68.447581) translate(-634.657766, -992.968937) "></path>
                        <path d="M719.908296,618.824926 C193.046093,643.078481 -163.860561,764.346251 -104.376118,1055.3889 C-44.8916761,1346.43155 1229.77494,1467.69932 1348.74383,1273.67089 C1467.71271,1079.64245 1246.7705,594.571372 719.908296,618.824926 Z" id="duplicate_95_original_original_Path-2_6701545_28547072" opacity="0.472558271" transform="translate(634.657766, 992.968937) rotate(67.744931) translate(-634.657766, -992.968937) "></path>
                        <path d="M719.107821,622.316535 C197.192681,646.343749 -156.362736,766.479817 -97.4368331,1054.80638 C-38.5109302,1343.13294 1224.18699,1463.26901 1342.0388,1271.0513 C1459.8906,1078.83359 1241.02296,598.289321 719.107821,622.316535 Z" id="duplicate_94_original_original_Path-2_6701545_28547072" opacity="0.48804177" transform="translate(634.657766, 992.968937) rotate(67.024622) translate(-634.657766, -992.968937) "></path>
                        <path d="M718.307347,625.80814 C201.33927,649.609013 -148.864911,768.613381 -90.4975478,1054.22386 C-32.1301843,1339.83434 1218.59903,1458.83871 1335.33376,1268.43172 C1452.06849,1078.02474 1235.27542,602.007266 718.307347,625.80814 Z" id="duplicate_93_original_original_Path-2_6701545_28547072" opacity="0.520108169" transform="translate(634.657766, 992.968937) rotate(66.287109) translate(-634.657766, -992.968937) "></path>
                        <path d="M717.506873,629.29974 C205.485858,652.874274 -141.367087,770.746942 -83.5582625,1053.64134 C-25.7494383,1336.53575 1213.01108,1454.40842 1328.62873,1265.81215 C1444.24638,1077.21588 1229.52789,605.725207 717.506873,629.29974 Z" id="duplicate_92_original_original_Path-2_6701545_28547072" opacity="0.832616595" transform="translate(634.657766, 992.968937) rotate(65.532858) translate(-634.657766, -992.968937) "></path>
                        <path d="M716.706398,632.791337 C209.632447,656.139531 -133.869262,772.8805 -76.6189772,1053.05883 C-19.3686924,1333.23715 1207.42313,1449.97812 1321.92369,1263.19257 C1436.42426,1076.40702 1223.78035,609.443143 716.706398,632.791337 Z" id="duplicate_91_original_original_Path-2_6701545_28547072" opacity="0.745948887" transform="translate(634.657766, 992.968937) rotate(64.762344) translate(-634.657766, -992.968937) "></path>
                        <path d="M715.905924,636.282929 C213.779035,659.404783 -126.371437,775.014056 -69.6796919,1052.47631 C-12.9879465,1329.93857 1201.83517,1445.54784 1315.21866,1260.573 C1428.60215,1075.59817 1218.03281,613.161074 715.905924,636.282929 Z" id="duplicate_90_original_original_Path-2_6701545_28547072" opacity="0.397356652" transform="translate(634.657766, 992.968937) rotate(63.976056) translate(-634.657766, -992.968937) "></path>
                        <path d="M715.105449,639.774516 C217.925624,662.670032 -118.873613,777.147609 -62.7404066,1051.8938 C-6.60720054,1326.63998 1196.24722,1441.11756 1308.51363,1257.95343 C1420.78004,1074.78931 1212.28527,616.879001 715.105449,639.774516 Z" id="duplicate_89_original_original_Path-2_6701545_28547072" opacity="0.222217016" transform="translate(634.657766, 992.968937) rotate(63.174489) translate(-634.657766, -992.968937) "></path>
                        <path d="M714.304975,643.2661 C222.072212,665.935276 -111.375788,779.28116 -55.8011213,1051.31128 C-0.22645461,1323.3414 1190.65926,1436.68728 1301.80859,1255.33387 C1412.95793,1073.98046 1206.53774,620.596923 714.304975,643.2661 Z" id="duplicate_88_original_original_Path-2_6701545_28547072" opacity="0.485325034" transform="translate(634.657766, 992.968937) rotate(62.358150) translate(-634.657766, -992.968937) "></path>
                        <path d="M713.5045,646.757678 C226.218801,669.200516 -103.877963,781.414707 -48.861836,1050.72877 C6.15429132,1320.04282 1185.07131,1432.25702 1295.10356,1252.71431 C1405.13582,1073.1716 1200.7902,624.31484 713.5045,646.757678 Z" id="duplicate_87_original_original_Path-2_6701545_28547072" opacity="0.793808134" transform="translate(634.657766, 992.968937) rotate(61.527554) translate(-634.657766, -992.968937) "></path>
                        <path d="M712.704026,650.249252 C230.365389,672.465752 -96.3801387,783.548252 -41.9225507,1050.14625 C12.5350373,1316.74425 1179.48335,1427.82675 1288.39853,1250.09475 C1397.3137,1072.36275 1195.04266,628.032752 712.704026,650.249252 Z" id="duplicate_86_original_original_Path-2_6701545_28547072" opacity="0.552079958" transform="translate(634.657766, 992.968937) rotate(60.683226) translate(-634.657766, -992.968937) "></path>
                        <path d="M711.903551,653.74082 C234.511978,675.730982 -88.8823141,785.681793 -34.9832654,1049.56374 C18.9157832,1313.44569 1173.8954,1423.3965 1281.69349,1247.4752 C1389.49159,1071.5539 1189.29512,631.750658 711.903551,653.74082 Z" id="duplicate_85_original_original_Path-2_6701545_28547072" opacity="0.766516456" transform="translate(634.657766, 992.968937) rotate(59.825699) translate(-634.657766, -992.968937) "></path>
                        <path d="M711.103077,657.232384 C238.658566,678.996208 -81.3844894,787.815332 -28.0439802,1048.98123 C25.2965291,1310.14712 1168.30744,1418.96625 1274.98846,1244.85565 C1381.66948,1070.74505 1183.54759,635.468559 711.103077,657.232384 Z" id="duplicate_84_original_original_Path-2_6701545_28547072" opacity="0.499350028" transform="translate(634.657766, 992.968937) rotate(58.955516) translate(-634.657766, -992.968937) "></path>
                        <path d="M710.302602,660.723942 C242.805155,682.261429 -73.8866648,789.948867 -21.1046949,1048.39872 C31.677275,1306.84857 1162.71949,1414.53601 1268.28343,1242.23611 C1373.84737,1069.93621 1177.80005,639.186454 710.302602,660.723942 Z" id="duplicate_83_original_original_Path-2_6701545_28547072" opacity="0.883752985" transform="translate(634.657766, 992.968937) rotate(58.073224) translate(-634.657766, -992.968937) "></path>
                        <path d="M709.502128,664.215494 C246.951743,685.526645 -66.3888401,792.082399 -14.1654096,1047.81621 C38.058021,1303.55002 1157.13153,1410.10577 1261.57839,1239.61656 C1366.02525,1069.12736 1172.05251,642.904344 709.502128,664.215494 Z" id="duplicate_82_original_original_Path-2_6701545_28547072" opacity="0.751554928" transform="translate(634.657766, 992.968937) rotate(57.179383) translate(-634.657766, -992.968937) "></path>
                        <path d="M708.701653,667.707041 C251.098332,688.791856 -58.8910154,794.215927 -7.22612427,1047.2337 C44.4387669,1300.25147 1151.54358,1405.67554 1254.87336,1236.99703 C1358.20314,1068.31851 1166.30498,646.622227 708.701653,667.707041 Z" id="duplicate_81_original_original_Path-2_6701545_28547072" opacity="0.923485155" transform="translate(634.657766, 992.968937) rotate(56.274556) translate(-634.657766, -992.968937) "></path>
                        <path d="M707.901179,671.198583 C255.24492,692.057061 -51.3931908,796.349452 -0.286838972,1046.65119 C50.8195128,1296.95293 1145.95562,1401.24532 1248.16833,1234.37749 C1350.38103,1067.50967 1160.55744,650.340104 707.901179,671.198583 Z" id="duplicate_80_original_original_Path-2_6701545_28547072" opacity="0.0659731836" transform="translate(634.657766, 992.968937) rotate(55.359315) translate(-634.657766, -992.968937) "></path>
                        <path d="M707.100705,674.690118 C259.391509,695.32226 -43.8953661,798.482973 6.65244632,1046.06868 C57.2002588,1293.65439 1140.36767,1396.81511 1241.46329,1231.75797 C1342.55892,1066.70083 1154.8099,654.057975 707.100705,674.690118 Z" id="duplicate_79_original_original_Path-2_6701545_28547072" opacity="0.779965622" transform="translate(634.657766, 992.968937) rotate(54.434237) translate(-634.657766, -992.968937) "></path>
                        <path d="M706.30023,678.181646 C263.538097,698.587454 -36.3975415,800.61649 13.5917316,1045.48618 C63.5810047,1290.35587 1134.77971,1392.3849 1234.75826,1229.13844 C1334.73681,1065.89199 1149.06236,657.775839 706.30023,678.181646 Z" id="duplicate_78_original_original_Path-2_6701545_28547072" opacity="0.815419326" transform="translate(634.657766, 992.968937) rotate(53.499908) translate(-634.657766, -992.968937) "></path>
                        <path d="M705.499756,681.673169 C267.684686,701.852641 -28.8997168,802.750003 20.5310169,1044.90367 C69.9617506,1287.05734 1129.19176,1387.9547 1228.05323,1226.51893 C1326.91469,1065.08315 1143.31483,661.493696 705.499756,681.673169 Z" id="duplicate_77_original_original_Path-2_6701545_28547072" opacity="0.630343198" transform="translate(634.657766, 992.968937) rotate(52.556918) translate(-634.657766, -992.968937) "></path>
                        <path d="M704.699281,685.164684 C271.831274,705.117822 -21.4018921,804.883513 27.4703022,1044.32117 C76.3424966,1283.75883 1123.6038,1383.52452 1221.34819,1223.89941 C1319.09258,1064.27431 1137.56729,665.211546 704.699281,685.164684 Z" id="duplicate_76_original_original_Path-2_6701545_28547072" opacity="0.653070329" transform="translate(634.657766, 992.968937) rotate(51.605861) translate(-634.657766, -992.968937) "></path>
                        <path d="M703.898807,688.656193 C275.977862,708.382997 -13.9040675,807.017018 34.4095875,1043.73867 C82.7232425,1280.46032 1118.01585,1379.09434 1214.64316,1221.2799 C1311.27047,1063.46547 1131.81975,668.929389 703.898807,688.656193 Z" id="duplicate_75_original_original_Path-2_6701545_28547072" opacity="0.715443312" transform="translate(634.657766, 992.968937) rotate(50.647340) translate(-634.657766, -992.968937) "></path>
                        <path d="M703.098332,692.147694 C280.124451,711.648165 -6.40624283,809.150518 41.3488728,1043.15617 C89.1039884,1277.16181 1112.42789,1374.66417 1207.93813,1218.6604 C1303.44836,1062.65664 1126.07221,672.647224 703.098332,692.147694 Z" id="duplicate_74_original_original_Path-2_6701545_28547072" opacity="0.684144146" transform="translate(634.657766, 992.968937) rotate(49.681958) translate(-634.657766, -992.968937) "></path>
                        <path d="M702.297858,695.639188 C284.271039,714.913326 1.09158183,811.284014 48.2881581,1042.57367 C95.4847344,1273.86332 1106.83994,1370.234 1201.23309,1216.0409 C1295.62625,1061.8478 1120.32468,676.365051 702.297858,695.639188 Z" id="duplicate_73_original_original_Path-2_6701545_28547072" opacity="0.532695367" transform="translate(634.657766, 992.968937) rotate(48.710326) translate(-634.657766, -992.968937) "></path>
                        <path d="M701.497383,699.130675 C288.417628,718.17848 8.58940649,813.417505 55.2274434,1041.99117 C101.86548,1270.56483 1101.25199,1365.80385 1194.52806,1213.42141 C1287.80413,1061.03897 1114.57714,680.08287 701.497383,699.130675 Z" id="duplicate_72_original_original_Path-2_6701545_28547072" opacity="0.909104993" transform="translate(634.657766, 992.968937) rotate(47.733058) translate(-634.657766, -992.968937) "></path>
                        <path d="M700.696909,702.622153 C292.564216,721.443626 16.0872312,815.550992 62.1667287,1041.40867 C108.246226,1267.26635 1095.66403,1361.37371 1187.82303,1210.80193 C1279.98202,1060.23014 1108.8296,683.80068 700.696909,702.622153 Z" id="duplicate_71_original_original_Path-2_6701545_28547072" opacity="0.395162816" transform="translate(634.657766, 992.968937) rotate(46.750771) translate(-634.657766, -992.968937) "></path>
                        <path d="M699.896434,706.113623 C296.710805,724.708765 23.5850558,817.684473 69.106014,1040.82617 C114.626972,1263.96787 1090.07608,1356.94358 1181.11799,1208.18245 C1272.15991,1059.42131 1103.08206,687.518481 699.896434,706.113623 Z" id="duplicate_70_original_original_Path-2_6701545_28547072" opacity="0.071018548" transform="translate(634.657766, 992.968937) rotate(45.764085) translate(-634.657766, -992.968937) "></path>
                        <path d="M699.09596,709.605085 C300.857393,727.973895 31.0828805,819.817949 76.0452993,1040.24368 C121.007718,1260.66941 1084.48812,1352.51346 1174.41296,1205.56297 C1264.3378,1058.61249 1097.33453,691.236274 699.09596,709.605085 Z" id="duplicate_69_original_original_Path-2_6701545_28547072" opacity="0.22380094" transform="translate(634.657766, 992.968937) rotate(44.773624) translate(-634.657766, -992.968937) "></path>
                        <path d="M698.295485,713.096537 C305.003982,731.239017 38.5807051,821.95142 82.9845846,1039.66118 C127.388464,1257.37095 1078.90017,1348.08335 1167.70793,1202.94351 C1256.51568,1057.80367 1091.58699,694.954057 698.295485,713.096537 Z" id="duplicate_68_original_original_Path-2_6701545_28547072" opacity="0.989111252" transform="translate(634.657766, 992.968937) rotate(43.780012) translate(-634.657766, -992.968937) "></path>
                        <path d="M697.495011,716.58798 C309.15057,734.504131 46.0785298,824.084885 89.9238699,1039.07869 C133.76921,1254.0725 1073.31221,1343.65326 1161.00289,1200.32405 C1248.69357,1056.99484 1085.83945,698.67183 697.495011,716.58798 Z" id="duplicate_67_original_original_Path-2_6701545_28547072" opacity="0.760683432" transform="translate(634.657766, 992.968937) rotate(42.783879) translate(-634.657766, -992.968937) "></path>
                        <path d="M696.694536,720.079414 C313.297159,737.769235 53.5763544,826.218344 96.8631552,1038.4962 C140.149956,1250.77406 1067.72426,1339.22317 1154.29786,1197.7046 C1240.87146,1056.18602 1080.09191,702.389592 696.694536,720.079414 Z" id="duplicate_66_original_original_Path-2_6701545_28547072" opacity="0.664545924" transform="translate(634.657766, 992.968937) rotate(41.785852) translate(-634.657766, -992.968937) "></path>
                        <path d="M695.894062,723.570837 C317.443747,741.034331 61.0741791,828.351797 103.80244,1037.91371 C146.530702,1247.47563 1062.1363,1334.7931 1147.59282,1195.08515 C1233.04935,1055.37721 1074.34438,706.107344 695.894062,723.570837 Z" id="duplicate_65_original_original_Path-2_6701545_28547072" opacity="0.87848282" transform="translate(634.657766, 992.968937) rotate(40.786562) translate(-634.657766, -992.968937) "></path>
                        <path d="M695.093588,727.06225 C321.590336,744.299416 68.5720038,830.485243 110.741726,1037.33123 C152.911448,1244.17721 1056.54835,1330.36304 1140.88779,1192.46572 C1225.22724,1054.56839 1068.59684,709.825085 695.093588,727.06225 Z" id="duplicate_64_original_original_Path-2_6701545_28547072" opacity="0.696980934" transform="translate(634.657766, 992.968937) rotate(39.786641) translate(-634.657766, -992.968937) "></path>
                        <path d="M694.293113,730.553653 C325.736924,747.564491 76.0698284,832.618683 117.681011,1036.74874 C159.292194,1240.8788 1050.96039,1325.933 1134.18276,1189.84629 C1217.40512,1053.75958 1062.8493,713.542814 694.293113,730.553653 Z" id="duplicate_63_original_original_Path-2_6701545_28547072" opacity="0.131925324" transform="translate(634.657766, 992.968937) rotate(38.786720) translate(-634.657766, -992.968937) "></path>
                        <path d="M693.492639,734.045044 C329.883513,750.829556 83.5676531,834.752116 124.620296,1036.16626 C165.67294,1237.58041 1045.37244,1321.50297 1127.47772,1187.22687 C1209.58301,1052.95077 1057.10176,717.260532 693.492639,734.045044 Z" id="duplicate_62_original_original_Path-2_6701545_28547072" opacity="0.505408094" transform="translate(634.657766, 992.968937) rotate(37.787431) translate(-634.657766, -992.968937) "></path>
                        <path d="M692.692164,737.536423 C334.030101,754.094609 91.0654777,836.885542 131.559582,1035.58378 C172.053686,1234.28202 1039.78448,1317.07295 1120.77269,1184.60746 C1201.7609,1052.14197 1051.35423,720.978236 692.692164,737.536423 Z" id="duplicate_61_original_original_Path-2_6701545_28547072" opacity="0.497135983" transform="translate(634.657766, 992.968937) rotate(36.789404) translate(-634.657766, -992.968937) "></path>
                        <path d="M691.89169,741.02779 C338.17669,757.359651 98.5633024,839.01896 138.498867,1035.0013 C178.434431,1230.98364 1034.19653,1312.64295 1114.06766,1181.98806 C1193.93879,1051.33316 1045.60669,724.695928 691.89169,741.02779 Z" id="duplicate_60_original_original_Path-2_6701545_28547072" opacity="0.679791147" transform="translate(634.657766, 992.968937) rotate(35.793271) translate(-634.657766, -992.968937) "></path>
                        <path d="M691.091215,744.519144 C342.323278,760.624681 106.061127,841.15237 145.438152,1034.41882 C184.815177,1227.68528 1028.60857,1308.21297 1107.36262,1179.36866 C1186.11667,1050.52436 1039.85915,728.413606 691.091215,744.519144 Z" id="duplicate_59_original_original_Path-2_6701545_28547072" opacity="0.96126793" transform="translate(634.657766, 992.968937) rotate(34.799659) translate(-634.657766, -992.968937) "></path>
                        <path d="M690.290741,748.010484 C346.469867,763.889699 113.558952,843.285773 152.377438,1033.83635 C191.195923,1224.38693 1023.02062,1303.783 1100.65759,1176.74928 C1178.29456,1049.71556 1034.11162,732.13127 690.290741,748.010484 Z" id="duplicate_58_original_original_Path-2_6701545_28547072" opacity="0.478773465" transform="translate(634.657766, 992.968937) rotate(33.809198) translate(-634.657766, -992.968937) "></path>
                        <path d="M689.490266,751.501811 C350.616455,767.154704 121.056776,845.419166 159.316723,1033.25388 C197.576669,1221.08859 1017.43266,1299.35305 1093.95256,1174.12991 C1170.47245,1048.90677 1028.36408,735.848918 689.490266,751.501811 Z" id="duplicate_57_original_original_Path-2_6701545_28547072" opacity="0.619337373" transform="translate(634.657766, 992.968937) rotate(32.822512) translate(-634.657766, -992.968937) "></path>
                        <path d="M688.689792,754.993123 C354.763043,770.419694 128.554601,847.552551 166.256008,1032.67141 C203.957415,1217.79026 1011.84471,1294.92312 1087.24752,1171.51055 C1162.65034,1048.09798 1022.61654,739.566552 688.689792,754.993123 Z" id="duplicate_56_original_original_Path-2_6701545_28547072" opacity="0.50969931" transform="translate(634.657766, 992.968937) rotate(31.840225) translate(-634.657766, -992.968937) "></path>
                        <path d="M687.889317,758.48442 C358.909632,773.684671 136.052426,849.685927 173.195293,1032.08894 C210.338161,1214.49195 1006.25675,1290.49321 1080.54249,1168.8912 C1154.82823,1047.28919 1016.869,743.284169 687.889317,758.48442 Z" id="duplicate_55_original_original_Path-2_6701545_28547072" opacity="0.923584809" transform="translate(634.657766, 992.968937) rotate(30.862956) translate(-634.657766, -992.968937) "></path>
                        <path d="M687.088843,761.975701 C363.05622,776.949633 143.55025,851.819292 180.134579,1031.50648 C216.718907,1211.19366 1000.6688,1286.06332 1073.83746,1166.27186 C1147.00611,1046.48041 1011.12147,747.001769 687.088843,761.975701 Z" id="duplicate_54_original_original_Path-2_6701545_28547072" opacity="0.377691521" transform="translate(634.657766, 992.968937) rotate(29.891325) translate(-634.657766, -992.968937) "></path>
                        <path d="M686.288368,765.466965 C367.202809,780.214579 151.048075,853.952648 187.073864,1030.92401 C223.099653,1207.89538 995.080845,1281.63345 1067.13242,1163.65254 C1139.184,1045.67163 1005.37393,750.719351 686.288368,765.466965 Z" id="duplicate_53_original_original_Path-2_6701545_28547072" opacity="0.106692861" transform="translate(634.657766, 992.968937) rotate(28.925943) translate(-634.657766, -992.968937) "></path>
                        <path d="M685.487894,768.958212 C371.349397,783.479508 158.5459,856.085993 194.013149,1030.34156 C229.480399,1204.59712 989.492891,1277.2036 1060.42739,1161.03323 C1131.36189,1044.86285 999.626391,754.436915 685.487894,768.958212 Z" id="duplicate_52_original_original_Path-2_6701545_28547072" opacity="0.161820359" transform="translate(634.657766, 992.968937) rotate(27.967421) translate(-634.657766, -992.968937) "></path>
                        <path d="M684.68742,772.44944 C375.495986,786.744421 166.043724,858.219326 200.952435,1029.7591 C235.861145,1201.29887 983.904936,1272.77378 1053.72236,1158.41393 C1123.53978,1044.05408 993.878853,758.154459 684.68742,772.44944 Z" id="duplicate_51_original_original_Path-2_6701545_28547072" opacity="0.0565380245" transform="translate(634.657766, 992.968937) rotate(27.016365) translate(-634.657766, -992.968937) "></path>
                        <path d="M683.886945,775.940649 C379.642574,790.009315 173.541549,860.352648 207.89172,1029.17665 C242.241891,1198.00065 978.316981,1268.34398 1047.01732,1155.79465 C1115.71766,1043.24531 988.131316,761.871982 683.886945,775.940649 Z" id="duplicate_50_original_original_Path-2_6701545_28547072" opacity="0.549457202" transform="translate(634.657766, 992.968937) rotate(26.073374) translate(-634.657766, -992.968937) "></path>
                        <path d="M683.086471,779.431837 C383.789163,793.274191 181.039374,862.485957 214.831005,1028.5942 C248.622637,1194.70244 972.729027,1263.9142 1040.31229,1153.17538 C1107.89555,1042.43655 982.383778,765.589484 683.086471,779.431837 Z" id="duplicate_49_original_original_Path-2_6701545_28547072" opacity="0.727924646" transform="translate(634.657766, 992.968937) rotate(25.139045) translate(-634.657766, -992.968937) "></path>
                        <path d="M682.285996,782.923004 C387.935751,796.539046 188.537198,864.619254 221.77029,1028.01175 C255.003383,1191.40425 967.141072,1259.48446 1033.60726,1150.55613 C1100.07344,1041.62779 976.636241,769.306963 682.285996,782.923004 Z" id="duplicate_48_original_original_Path-2_6701545_28547072" opacity="0.0398891601" transform="translate(634.657766, 992.968937) rotate(24.213968) translate(-634.657766, -992.968937) "></path>
                        <path d="M681.485522,786.414149 C392.08234,799.80388 196.035023,866.752536 228.709576,1027.42931 C261.384129,1188.10608 961.553117,1255.05474 1026.90222,1147.93689 C1092.25133,1040.81904 970.888704,773.024418 681.485522,786.414149 Z" id="duplicate_47_original_original_Path-2_6701545_28547072" opacity="0.12229199" transform="translate(634.657766, 992.968937) rotate(23.298727) translate(-634.657766, -992.968937) "></path>
                        <path d="M680.685047,789.905271 C396.228928,803.068693 203.532848,868.885804 235.648861,1026.84687 C267.764874,1184.80794 955.965162,1250.62505 1020.19719,1145.31767 C1084.42922,1040.01029 965.141166,776.741848 680.685047,789.905271 Z" id="duplicate_46_original_original_Path-2_6701545_28547072" opacity="0.00199482031" transform="translate(634.657766, 992.968937) rotate(22.393900) translate(-634.657766, -992.968937) "></path>
                        <path d="M679.884573,793.396367 C400.375517,806.333482 211.030672,871.019057 242.588146,1026.26444 C274.14562,1181.50982 950.377208,1246.1954 1013.49216,1142.69847 C1076.6071,1039.20155 959.393629,780.459252 679.884573,793.396367 Z" id="duplicate_45_original_original_Path-2_6701545_28547072" opacity="0.939233616" transform="translate(634.657766, 992.968937) rotate(21.500058) translate(-634.657766, -992.968937) "></path>
                        <path d="M679.084098,796.887437 C404.522105,809.598246 218.528497,873.152294 249.527432,1025.68201 C280.526366,1178.21172 944.789253,1241.76577 1006.78712,1140.0793 C1068.78499,1038.39282 953.646091,784.176627 679.084098,796.887437 Z" id="duplicate_44_original_original_Path-2_6701545_28547072" opacity="0.435142375" transform="translate(634.657766, 992.968937) rotate(20.617767) translate(-634.657766, -992.968937) "></path>
                        <path d="M678.283624,800.378479 C408.668694,812.862985 226.026322,875.285514 256.466717,1025.09958 C286.907112,1174.91365 939.201298,1237.33618 1000.08209,1137.46014 C1060.96288,1037.58409 947.898554,787.893973 678.283624,800.378479 Z" id="duplicate_43_original_original_Path-2_6701545_28547072" opacity="0.802328823" transform="translate(634.657766, 992.968937) rotate(19.747583) translate(-634.657766, -992.968937) "></path>
                        <path d="M677.483149,803.869492 C412.815282,816.127696 233.524146,877.418716 263.406002,1024.51716 C293.287858,1171.61561 933.613343,1232.90663 993.377055,1134.841 C1053.14077,1036.77537 942.151017,791.611288 677.483149,803.869492 Z" id="duplicate_42_original_original_Path-2_6701545_28547072" opacity="0.155129872" transform="translate(634.657766, 992.968937) rotate(18.890057) translate(-634.657766, -992.968937) "></path>
                        <path d="M676.682675,807.360474 C416.961871,819.392378 241.021971,879.551899 270.345288,1023.93475 C299.668604,1168.3176 928.025389,1228.47712 986.672022,1132.22189 C1045.31866,1035.96665 936.403479,795.32857 676.682675,807.360474 Z" id="duplicate_41_original_original_Path-2_6701545_28547072" opacity="0.915925586" transform="translate(634.657766, 992.968937) rotate(18.045729) translate(-634.657766, -992.968937) "></path>
                        <path d="M675.8822,810.851423 C421.108459,822.65703 248.519796,881.685062 277.284573,1023.35234 C306.04935,1165.01962 922.437434,1224.04765 979.966988,1129.6028 C1037.49654,1035.15795 930.655942,799.045817 675.8822,810.851423 Z" id="duplicate_40_original_original_Path-2_6701545_28547072" opacity="0.523052611" transform="translate(634.657766, 992.968937) rotate(17.215133) translate(-634.657766, -992.968937) "></path>
                        <path d="M675.081726,814.342337 C425.255048,825.921649 256.01762,883.818204 284.223858,1022.76994 C312.430096,1161.72167 916.849479,1219.61823 973.261955,1126.98374 C1029.67443,1034.34925 924.908404,802.763026 675.081726,814.342337 Z" id="duplicate_39_original_original_Path-2_6701545_28547072" opacity="0.975706575" transform="translate(634.657766, 992.968937) rotate(16.398794) translate(-634.657766, -992.968937) "></path>
                        <path d="M674.281251,817.833215 C429.401636,829.186233 263.515445,885.951323 291.163143,1022.18754 C318.810842,1158.42376 911.261525,1215.18885 966.556922,1124.3647 C1021.85232,1033.54056 919.160867,806.480196 674.281251,817.833215 Z" id="duplicate_38_original_original_Path-2_6701545_28547072" opacity="0.0119679943" transform="translate(634.657766, 992.968937) rotate(15.597227) translate(-634.657766, -992.968937) "></path>
                        <path d="M673.480777,821.324052 C433.548225,832.45078 271.01327,888.084418 298.102429,1021.60515 C325.191588,1155.12588 905.67357,1210.75952 959.851888,1121.7457 C1014.03021,1032.73188 913.41333,810.197325 673.480777,821.324052 Z" id="duplicate_37_original_original_Path-2_6701545_28547072" opacity="0.77481663" transform="translate(634.657766, 992.968937) rotate(14.810938) translate(-634.657766, -992.968937) "></path>
                        <path d="M672.680303,824.814848 C437.694813,835.715288 278.511094,890.217487 305.041714,1021.02277 C331.572334,1151.82804 900.085615,1206.33024 953.146855,1119.12672 C1006.20809,1031.92321 907.665792,813.914408 672.680303,824.814848 Z" id="duplicate_36_original_original_Path-2_6701545_28547072" opacity="0.205733038" transform="translate(634.657766, 992.968937) rotate(14.040425) translate(-634.657766, -992.968937) "></path>
                        <path d="M671.879828,828.305599 C441.841401,838.979755 286.008919,892.35053 311.980999,1020.44039 C337.95308,1148.53025 894.49766,1201.90102 946.441821,1116.50778 C998.385982,1031.11454 901.918255,817.631444 671.879828,828.305599 Z" id="duplicate_35_original_original_Path-2_6701545_28547072" opacity="0.663765823" transform="translate(634.657766, 992.968937) rotate(13.286174) translate(-634.657766, -992.968937) "></path>
                        <path d="M671.079354,831.796303 C445.98799,842.244176 293.506744,894.483543 318.920285,1019.85802 C344.333826,1145.2325 888.909706,1197.47187 939.736788,1113.88888 C990.56387,1030.30589 896.170717,821.34843 671.079354,831.796303 Z" id="duplicate_34_original_original_Path-2_6701545_28547072" opacity="0.857416974" transform="translate(634.657766, 992.968937) rotate(12.548661) translate(-634.657766, -992.968937) "></path>
                        <path d="M670.278879,835.286956 C450.134578,845.50855 301.004568,896.616524 325.85957,1019.27566 C350.714572,1141.9348 883.321751,1193.04277 933.031754,1111.27001 C982.741758,1029.49726 890.42318,825.065361 670.278879,835.286956 Z" id="duplicate_33_original_original_Path-2_6701545_28547072" opacity="0.658015898" transform="translate(634.657766, 992.968937) rotate(11.828352) translate(-634.657766, -992.968937) "></path>
                        <path d="M669.478405,838.777554 C454.281167,848.772873 308.502393,898.749473 332.798855,1018.69331 C357.095318,1138.63715 877.733796,1188.61375 926.326721,1108.65119 C974.919646,1028.68863 884.675643,828.782234 669.478405,838.777554 Z" id="duplicate_32_original_original_Path-2_6701545_28547072" opacity="0.438952461" transform="translate(634.657766, 992.968937) rotate(11.125702) translate(-634.657766, -992.968937) "></path>
                        <path d="M668.67793,842.268093 C458.427755,852.037142 316.000218,900.882385 339.73814,1018.11097 C363.476063,1135.33956 872.145841,1184.1848 919.621687,1106.03241 C967.097533,1027.88002 878.928105,832.499044 668.67793,842.268093 Z" id="duplicate_31_original_original_Path-2_6701545_28547072" opacity="0.0860658018" transform="translate(634.657766, 992.968937) rotate(10.441154) translate(-634.657766, -992.968937) "></path>
                        <path d="M667.877456,845.75857 C462.574344,855.301351 323.498042,903.01526 346.677426,1017.52864 C369.856809,1132.04202 866.557887,1179.75593 912.916654,1103.41368 C959.275421,1027.07142 873.180568,836.215788 667.877456,845.75857 Z" id="duplicate_30_original_original_Path-2_6701545_28547072" opacity="0.71434237" transform="translate(634.657766, 992.968937) rotate(9.775143) translate(-634.657766, -992.968937) "></path>
                        <path d="M667.076981,849.248979 C466.720932,858.565498 330.995867,905.148093 353.616711,1016.94632 C376.237555,1128.74455 860.969932,1175.32714 906.21162,1100.79499 C951.453309,1026.26284 867.43303,839.93246 667.076981,849.248979 Z" id="duplicate_29_original_original_Path-2_6701545_28547072" opacity="0.58907294" transform="translate(634.657766, 992.968937) rotate(9.128087) translate(-634.657766, -992.968937) "></path>
                        <path d="M666.276507,852.739315 C470.867521,861.829576 338.493691,907.280881 360.555996,1016.36401 C382.618301,1125.44715 855.381977,1170.89845 899.506587,1098.17636 C943.631197,1025.45427 861.685493,843.649054 666.276507,852.739315 Z" id="duplicate_28_original_original_Path-2_6701545_28547072" opacity="0.415877502" transform="translate(634.657766, 992.968937) rotate(8.500395) translate(-634.657766, -992.968937) "></path>
                        <path d="M665.476032,856.229572 C475.014109,865.09358 345.991516,909.413621 367.495282,1015.78172 C388.999047,1122.14982 849.794023,1166.46986 892.801554,1095.55779 C935.809085,1024.64573 855.937956,847.365564 665.476032,856.229572 Z" id="duplicate_27_original_original_Path-2_6701545_28547072" opacity="0.827654887" transform="translate(634.657766, 992.968937) rotate(7.892465) translate(-634.657766, -992.968937) "></path>
                        <path d="M664.675558,859.719744 C479.160698,868.357505 353.489341,911.54631 374.434567,1015.19944 C395.379793,1118.85257 844.206068,1162.04138 886.09652,1092.93929 C927.986972,1023.8372 850.190418,851.081983 664.675558,859.719744 Z" id="duplicate_26_original_original_Path-2_6701545_28547072" opacity="0.260992891" transform="translate(634.657766, 992.968937) rotate(7.304680) translate(-634.657766, -992.968937) "></path>
                        <path d="M663.875083,863.209824 C483.307286,871.621344 360.987165,913.678942 381.373852,1014.61718 C401.760539,1115.55541 838.618113,1157.61301 879.391487,1090.32085 C920.16486,1023.0287 844.442881,854.798305 663.875083,863.209824 Z" id="duplicate_25_original_original_Path-2_6701545_28547072" opacity="0.930528632" transform="translate(634.657766, 992.968937) rotate(6.737411) translate(-634.657766, -992.968937) "></path>
                        <path d="M663.074609,866.699804 C487.453875,874.885088 368.48499,915.811512 388.313138,1014.03493 C408.141285,1112.25835 833.030158,1153.18477 872.686453,1087.70249 C912.342748,1022.22021 838.695343,858.514519 663.074609,866.699804 Z" id="duplicate_24_original_original_Path-2_6701545_28547072" opacity="0.749278633" transform="translate(634.657766, 992.968937) rotate(6.191016) translate(-634.657766, -992.968937) "></path>
                        <path d="M662.274135,870.189673 C491.600463,878.14873 375.982815,917.944016 395.252423,1013.4527 C414.522031,1108.96138 827.442204,1148.75667 865.98142,1085.08421 C904.520636,1021.41176 832.947806,862.230616 662.274135,870.189673 Z" id="duplicate_23_original_original_Path-2_6701545_28547072" opacity="0.0738264851" transform="translate(634.657766, 992.968937) rotate(5.665842) translate(-634.657766, -992.968937) "></path>
                        <path d="M661.47366,873.679424 C495.747052,881.412261 383.480639,920.076446 402.191708,1012.87049 C420.902777,1105.66453 821.854249,1144.32872 859.276386,1082.46602 C896.698524,1020.60333 827.200269,865.946587 661.47366,873.679424 Z" id="duplicate_22_original_original_Path-2_6701545_28547072" opacity="0.934397749" transform="translate(634.657766, 992.968937) rotate(5.162219) translate(-634.657766, -992.968937) "></path>
                        <path d="M660.673186,877.169043 C499.89364,884.675669 390.978464,922.208797 409.130993,1012.2883 C427.283523,1102.36781 816.266294,1139.90094 852.571353,1079.84793 C888.876411,1019.79493 821.452731,869.662418 660.673186,877.169043 Z" id="duplicate_21_original_original_Path-2_6701545_28547072" opacity="0.0236432781" transform="translate(634.657766, 992.968937) rotate(4.680465) translate(-634.657766, -992.968937) "></path>
                        <path d="M659.872711,880.658519 C504.040229,887.938943 398.476289,924.341059 416.070279,1011.70614 C433.664269,1099.07122 810.678339,1135.47334 845.866319,1077.22995 C881.054299,1018.98656 815.705194,873.378096 659.872711,880.658519 Z" id="duplicate_20_original_original_Path-2_6701545_28547072" opacity="0.304498272" transform="translate(634.657766, 992.968937) rotate(4.220885) translate(-634.657766, -992.968937) "></path>
                        <path d="M659.072237,884.147836 C508.186817,891.202068 405.974113,926.473225 423.009564,1011.124 C440.045015,1095.77478 805.090385,1131.04594 839.161286,1074.61209 C873.232187,1018.17823 809.957656,877.093605 659.072237,884.147836 Z" id="duplicate_19_original_original_Path-2_6701545_28547072" opacity="0.0161313494" transform="translate(634.657766, 992.968937) rotate(3.783769) translate(-634.657766, -992.968937) "></path>
                        <path d="M658.271762,887.636979 C512.333406,894.46503 413.471938,928.605284 429.948849,1010.5419 C446.425761,1092.47851 799.50243,1126.61876 832.456252,1071.99435 C865.410075,1017.36995 804.210119,880.808928 658.271762,887.636979 Z" id="duplicate_18_original_original_Path-2_6701545_28547072" opacity="0.785612669" transform="translate(634.657766, 992.968937) rotate(3.369394) translate(-634.657766, -992.968937) "></path>
                        <path d="M657.471288,891.125927 C516.479994,897.72781 420.969763,930.737224 436.888135,1009.95982 C452.806506,1089.18241 793.914475,1122.19183 825.751219,1069.37677 C857.587963,1016.5617 798.462582,884.524044 657.471288,891.125927 Z" id="duplicate_17_original_original_Path-2_6701545_28547072" opacity="0.4252238" transform="translate(634.657766, 992.968937) rotate(2.978020) translate(-634.657766, -992.968937) "></path>
                        <path d="M656.670813,894.614659 C520.626582,900.990388 428.467587,932.869033 443.82742,1009.37778 C459.187252,1085.88653 788.326521,1117.76517 819.046186,1066.75934 C849.765851,1015.75351 792.715044,888.23893 656.670813,894.614659 Z" id="duplicate_16_original_original_Path-2_6701545_28547072" opacity="0.447288998" transform="translate(634.657766, 992.968937) rotate(2.609895) translate(-634.657766, -992.968937) "></path>
                        <path d="M655.870339,898.103149 C524.773171,904.25274 435.965412,935.000693 450.766705,1008.79578 C465.567998,1082.59087 782.738566,1113.33882 812.341152,1064.1421 C841.943738,1014.94537 786.967507,891.953558 655.870339,898.103149 Z" id="duplicate_15_original_original_Path-2_6701545_28547072" opacity="0.0439148126" transform="translate(634.657766, 992.968937) rotate(2.265253) translate(-634.657766, -992.968937) "></path>
                        <path d="M655.069864,901.591368 C528.919759,907.514838 443.463237,937.132188 457.705991,1008.21383 C471.948744,1079.29547 777.150611,1108.91282 805.636119,1061.52506 C834.121626,1014.1373 781.219969,895.667898 655.069864,901.591368 Z" id="duplicate_14_original_original_Path-2_6701545_28547072" opacity="0.514444606" transform="translate(634.657766, 992.968937) rotate(1.944309) translate(-634.657766, -992.968937) "></path>
                        <path d="M654.26939,905.079282 C533.066348,910.776651 450.961061,939.263496 464.645276,1007.63192 C478.32949,1076.00035 771.562656,1104.4872 798.931085,1058.90825 C826.299514,1013.32929 775.472432,899.381913 654.26939,905.079282 Z" id="duplicate_13_original_original_Path-2_6701545_28547072" opacity="0.796670939" transform="translate(634.657766, 992.968937) rotate(1.647267) translate(-634.657766, -992.968937) "></path>
                        <path d="M653.468915,908.566848 C537.212936,914.038139 458.458886,941.394592 471.584561,1007.05008 C484.710236,1072.70557 765.974702,1100.06202 792.226052,1056.2917 C818.477402,1012.52137 769.724894,903.095558 653.468915,908.566848 Z" id="duplicate_12_original_original_Path-2_6701545_28547072" opacity="0.408305444" transform="translate(634.657766, 992.968937) rotate(1.374315) translate(-634.657766, -992.968937) "></path>
                        <path d="M652.668441,912.05402 C541.359525,917.299258 465.956711,943.525447 478.523846,1006.4683 C491.090982,1069.41115 760.386747,1095.63734 785.521018,1053.67544 C810.65529,1011.71354 763.977357,906.808783 652.668441,912.05402 Z" id="duplicate_11_original_original_Path-2_6701545_28547072" opacity="0.192775353" transform="translate(634.657766, 992.968937) rotate(1.125626) translate(-634.657766, -992.968937) "></path>
                        <path d="M651.867967,915.54074 C545.506113,920.559954 473.454535,945.656025 485.463132,1005.8866 C497.471728,1066.11717 754.798792,1091.21324 778.815985,1051.05953 C802.833177,1010.90581 758.22982,910.521525 651.867967,915.54074 Z" id="duplicate_10_original_original_Path-2_6701545_28547072" opacity="0.938227886" transform="translate(634.657766, 992.968937) rotate(0.901355) translate(-634.657766, -992.968937) "></path>
                        <path d="M651.067492,919.026936 C549.652702,923.820161 480.95236,947.786285 492.402417,1005.30498 C503.852474,1062.82368 749.210837,1086.7898 772.110951,1048.444 C795.011065,1010.09821 752.482282,914.233712 651.067492,919.026936 Z" id="duplicate_9_original_original_Path-2_6701545_28547072" opacity="0.618200477" transform="translate(634.657766, 992.968937) rotate(0.701645) translate(-634.657766, -992.968937) "></path>
                        <path d="M650.267018,922.512526 C553.79929,927.079801 488.450185,949.916173 499.341702,1004.72347 C510.23322,1059.53076 743.622883,1082.36713 765.405918,1045.82894 C787.188953,1009.29074 746.734745,917.945252 650.267018,922.512526 Z" id="duplicate_8_original_original_Path-2_6701545_28547072" opacity="0.688319162" transform="translate(634.657766, 992.968937) rotate(0.526622) translate(-634.657766, -992.968937) "></path>
                        <path d="M649.466543,925.997405 C557.945879,930.338775 495.948009,952.045626 506.280988,1004.14207 C516.613966,1056.23851 738.034928,1077.94536 758.700884,1043.2144 C779.366841,1008.48344 740.987207,921.656034 649.466543,925.997405 Z" id="duplicate_7_original_original_Path-2_6701545_28547072" opacity="0.671088303" transform="translate(634.657766, 992.968937) rotate(0.376396) translate(-634.657766, -992.968937) "></path>
                        <path d="M648.666069,929.481443 C562.092467,933.596964 503.445834,954.174566 513.220273,1003.56081 C522.994712,1052.94706 732.446973,1073.52466 751.995851,1040.6005 C771.544729,1007.67633 735.23967,925.365922 648.666069,929.481443 Z" id="duplicate_6_original_original_Path-2_6701545_28547072" opacity="0.872560072" transform="translate(634.657766, 992.968937) rotate(0.251063) translate(-634.657766, -992.968937) "></path>
                        <path d="M647.865594,932.964478 C566.239056,936.854214 510.943659,956.302894 520.159558,1002.97972 C529.375458,1049.65656 726.859019,1069.10523 745.290818,1037.98735 C763.722617,1006.86946 729.492133,929.074742 647.865594,932.964478 Z" id="duplicate_5_original_original_Path-2_6701545_28547072" opacity="0.623308883" transform="translate(634.657766, 992.968937) rotate(0.150701) translate(-634.657766, -992.968937) "></path>
                        <path d="M647.06512,936.446303 C570.385644,940.110332 518.441483,958.430481 527.098843,1002.39884 C535.756204,1046.36719 721.271064,1064.68734 738.585784,1035.37511 C755.900504,1006.06287 723.744595,932.782273 647.06512,936.446303 Z" id="duplicate_4_original_original_Path-2_6701545_28547072" opacity="0.86827919" transform="translate(634.657766, 992.968937) rotate(0.075374) translate(-634.657766, -992.968937) "></path>
                        <path d="M646.264645,939.926647 C574.532233,943.365067 525.939308,960.557164 534.038129,1001.8182 C542.13695,1043.07923 715.683109,1060.27133 731.880751,1032.76397 C748.078392,1005.25662 717.997058,936.488228 646.264645,939.926647 Z" id="duplicate_3_original_original_Path-2_6701545_28547072" opacity="0.787317783" transform="translate(634.657766, 992.968937) rotate(0.025130) translate(-634.657766, -992.968937) "></path>
                        <path d="M645.464171,943.534434 C578.678821,946.738981 533.437133,962.761721 540.977414,1001.2163 C548.517695,1039.67087 710.095154,1055.69361 725.175717,1030.05723 C740.25628,1004.42084 712.24952,940.329886 645.464171,943.534434 Z" id="duplicate_2_original_original_Path-2_6701545_28547072" opacity="0.558797678"></path>
                        <path d="M644.689863,946.689863 C582.689863,949.689863 540.689863,964.689863 547.689863,1000.68986 C554.689863,1036.68986 704.689863,1051.68986 718.689863,1027.68986 C732.689863,1003.68986 706.689863,943.689863 644.689863,946.689863 Z" id="duplicate_1_original_original_Path-2_6701545_28547072" opacity="0.629756086"></path>
                    </g>
                </g>
            </g>
        </g>
    </g>
</svg>