<?xml version="1.0" encoding="UTF-8" standalone="no"?>
<svg width="1211px" height="567px" viewBox="0 0 1211 567" version="1.1" xmlns="http://www.w3.org/2000/svg" xmlns:xlink="http://www.w3.org/1999/xlink">
    <!-- Generator: Sketch 45.2 (43514) - http://www.bohemiancoding.com/sketch -->
    <title>pattern-top-mask</title>
    <desc>Created with Sketch.</desc>
    <defs>
        <rect id="path-1" x="0" y="0" width="1211" height="567"></rect>
        <linearGradient x1="0.25781251%" y1="49.7500002%" x2="101.257813%" y2="49.7500002%" id="linearGradient-3">
            <stop stop-color="#369BD8" offset="0%"></stop>
            <stop stop-color="#53A0FD" offset="47.5247532%"></stop>
            <stop stop-color="#3032C1" offset="100%"></stop>
        </linearGradient>
    </defs>
    <g id="Landing-Page" stroke="none" stroke-width="1" fill="none" fill-rule="evenodd">
        <g id="_patterns-copy" transform="translate(-202.000000, 0.000000)">
            <g id="pattern-top-mask" transform="translate(202.000000, 0.000000)">
                <mask id="mask-2" fill="white">
                    <use xlink:href="#path-1"></use>
                </mask>
                <g id="Rectangle-4"></g>
                <g id="pattern-top" opacity="0.600000024" mask="url(#mask-2)" stroke="url(#linearGradient-3)">
                    <g transform="translate(790.755626, -180.244374) rotate(45.000000) translate(-790.755626, 180.244374) translate(156.755626, -1172.244374)">
                        <path d="M739.230295,530.843835 C88.6915182,560.755966 -351.99604,710.316619 -278.548114,1069.26219 C-205.100187,1428.20776 1368.78395,1577.76841 1515.6798,1338.47136 C1662.57565,1099.17432 1389.76907,500.931704 739.230295,530.843835 Z" id="duplicate_120_original_original_Path-2_6701545_28547072" opacity="0.851667632" transform="translate(633.967903, 992.279074) rotate(79.046661) translate(-633.967903, -992.279074) "></path>
                        <path d="M738.42982,534.335515 C92.8381067,564.0213 -344.498215,712.450228 -271.608828,1068.67966 C-198.719441,1424.90908 1363.19599,1573.33801 1508.97477,1335.85173 C1654.75354,1098.36544 1384.02153,504.649729 738.42982,534.335515 Z" id="duplicate_119_original_original_Path-2_6701545_28547072" opacity="0.98053774" transform="translate(633.967903, 992.279074) rotate(78.871638) translate(-633.967903, -992.279074) "></path>
                        <path d="M737.629346,537.827192 C96.9846952,567.286633 -337.000391,714.583836 -264.669543,1068.09713 C-192.338695,1421.61041 1357.60804,1568.90762 1502.26974,1333.23209 C1646.93143,1097.55657 1378.274,508.367751 737.629346,537.827192 Z" id="duplicate_118_original_original_Path-2_6701545_28547072" opacity="0.133188335" transform="translate(633.967903, 992.279074) rotate(78.671928) translate(-633.967903, -992.279074) "></path>
                        <path d="M736.828871,541.318867 C101.131284,570.551963 -329.502566,716.717443 -257.730258,1067.5146 C-185.957949,1418.31175 1352.02009,1564.47723 1495.5647,1330.61246 C1639.10932,1096.74769 1372.52646,512.085771 736.828871,541.318867 Z" id="duplicate_117_original_original_Path-2_6701545_28547072" opacity="0.873335519" transform="translate(633.967903, 992.279074) rotate(78.447657) translate(-633.967903, -992.279074) "></path>
                        <path d="M736.028397,544.81054 C105.277872,573.817291 -322.004741,718.851048 -250.790972,1066.93207 C-179.577204,1415.01308 1346.43213,1560.04684 1488.85967,1327.99283 C1631.28721,1095.93882 1366.77892,515.803789 736.028397,544.81054 Z" id="duplicate_116_original_original_Path-2_6701545_28547072" opacity="0.0757069404" transform="translate(633.967903, 992.279074) rotate(78.198967) translate(-633.967903, -992.279074) "></path>
                        <path d="M735.227922,548.302211 C109.424461,577.082618 -314.506917,720.984652 -243.851687,1066.34954 C-173.196458,1411.71442 1340.84418,1555.61645 1482.15463,1325.3732 C1623.46509,1095.12994 1361.03138,519.521804 735.227922,548.302211 Z" id="duplicate_115_original_original_Path-2_6701545_28547072" opacity="0.219250612" transform="translate(633.967903, 992.279074) rotate(77.926015) translate(-633.967903, -992.279074) "></path>
                        <path d="M734.427448,551.793879 C113.571049,580.347942 -307.009092,723.118255 -236.912402,1065.76701 C-166.815712,1408.41576 1335.25622,1551.18607 1475.4496,1322.75357 C1615.64298,1094.32107 1355.28385,523.239817 734.427448,551.793879 Z" id="duplicate_114_original_original_Path-2_6701545_28547072" opacity="0.305437789" transform="translate(633.967903, 992.279074) rotate(77.628974) translate(-633.967903, -992.279074) "></path>
                        <path d="M733.626973,555.285545 C117.717638,583.613264 -299.511267,725.251856 -229.973117,1065.18448 C-160.434966,1405.1171 1329.66827,1546.75569 1468.74457,1320.13394 C1607.82087,1093.5122 1349.53631,526.957827 733.626973,555.285545 Z" id="duplicate_113_original_original_Path-2_6701545_28547072" opacity="0.839150429" transform="translate(633.967903, 992.279074) rotate(77.308030) translate(-633.967903, -992.279074) "></path>
                        <path d="M732.826499,558.777209 C121.864226,586.878584 -292.013443,727.385456 -223.033831,1064.60195 C-154.05422,1401.81844 1324.08031,1542.32531 1462.03953,1317.51432 C1599.99876,1092.70332 1343.78877,530.675835 732.826499,558.777209 Z" id="duplicate_112_original_original_Path-2_6701545_28547072" opacity="0.793303458" transform="translate(633.967903, 992.279074) rotate(76.963387) translate(-633.967903, -992.279074) "></path>
                        <path d="M732.026025,562.268871 C126.010815,590.143901 -284.515618,729.519054 -216.094546,1064.01942 C-147.673474,1398.51979 1318.49236,1537.89494 1455.3345,1314.8947 C1592.17665,1091.89445 1338.04123,534.39384 732.026025,562.268871 Z" id="duplicate_111_original_original_Path-2_6701545_28547072" opacity="0.101557661" transform="translate(633.967903, 992.279074) rotate(76.595263) translate(-633.967903, -992.279074) "></path>
                        <path d="M731.22555,565.760529 C130.157403,593.409216 -277.017793,731.652651 -209.155261,1063.43689 C-141.292728,1395.22114 1312.9044,1533.46457 1448.62947,1312.27508 C1584.35453,1091.08558 1332.2937,538.111843 731.22555,565.760529 Z" id="duplicate_110_original_original_Path-2_6701545_28547072" opacity="0.531877024" transform="translate(633.967903, 992.279074) rotate(76.203889) translate(-633.967903, -992.279074) "></path>
                        <path d="M730.425076,569.252186 C134.303991,596.674529 -269.519969,733.786246 -202.215975,1062.85437 C-134.911982,1391.92249 1307.31645,1529.0342 1441.92443,1309.65546 C1576.53242,1090.27671 1326.54616,541.829842 730.425076,569.252186 Z" id="duplicate_109_original_original_Path-2_6701545_28547072" opacity="0.0343483714" transform="translate(633.967903, 992.279074) rotate(75.789513) translate(-633.967903, -992.279074) "></path>
                        <path d="M729.624601,572.743839 C138.45058,599.939839 -262.022144,735.919839 -195.27669,1062.27184 C-128.531236,1388.62384 1301.72849,1524.60384 1435.2194,1307.03584 C1568.71031,1089.46784 1320.79862,545.547839 729.624601,572.743839 Z" id="duplicate_108_original_original_Path-2_6701545_28547072" opacity="0.0514311476" transform="translate(633.967903, 992.279074) rotate(75.352398) translate(-633.967903, -992.279074) "></path>
                        <path d="M728.824127,576.23549 C142.597168,603.205147 -254.524319,738.053431 -188.337405,1061.68931 C-122.15049,1385.32519 1296.14054,1520.17348 1428.51437,1304.41622 C1560.8882,1088.65897 1315.05108,549.265834 728.824127,576.23549 Z" id="duplicate_107_original_original_Path-2_6701545_28547072" opacity="0.179941715" transform="translate(633.967903, 992.279074) rotate(74.892818) translate(-633.967903, -992.279074) "></path>
                        <path d="M728.023652,579.727139 C146.743757,606.470452 -247.026495,740.187021 -181.398119,1061.10679 C-115.769744,1382.02655 1290.55258,1515.74312 1421.80933,1301.79661 C1553.06608,1087.8501 1309.30355,552.983825 728.023652,579.727139 Z" id="duplicate_106_original_original_Path-2_6701545_28547072" opacity="0.90866041" transform="translate(633.967903, 992.279074) rotate(74.411064) translate(-633.967903, -992.279074) "></path>
                        <path d="M727.223178,583.218784 C150.890345,609.735755 -239.52867,742.32061 -174.458834,1060.52426 C-109.388998,1378.72791 1284.96463,1511.31277 1415.1043,1299.177 C1545.24397,1087.04123 1303.55601,556.701813 727.223178,583.218784 Z" id="duplicate_105_original_original_Path-2_6701545_28547072" opacity="0.185739228" transform="translate(633.967903, 992.279074) rotate(73.907441) translate(-633.967903, -992.279074) "></path>
                        <path d="M726.422703,586.710426 C155.036934,613.001055 -232.030845,744.454197 -167.519549,1059.94174 C-103.008252,1375.42928 1279.37667,1506.88242 1408.39927,1296.55739 C1537.42186,1086.23237 1297.80847,560.419798 726.422703,586.710426 Z" id="duplicate_104_original_original_Path-2_6701545_28547072" opacity="0.429154493" transform="translate(633.967903, 992.279074) rotate(73.382266) translate(-633.967903, -992.279074) "></path>
                        <path d="M725.622229,590.202066 C159.183522,616.266352 -224.533021,746.587781 -160.580264,1059.35921 C-96.6275064,1372.13064 1273.78872,1502.45207 1401.69423,1293.93779 C1529.59975,1085.4235 1292.06094,564.13778 725.622229,590.202066 Z" id="duplicate_103_original_original_Path-2_6701545_28547072" opacity="0.960826743" transform="translate(633.967903, 992.279074) rotate(72.835872) translate(-633.967903, -992.279074) "></path>
                        <path d="M724.821754,593.693702 C163.330111,619.531646 -217.035196,748.721364 -153.640978,1058.77669 C-90.2467605,1368.83201 1268.20076,1498.02173 1394.9892,1291.31818 C1521.77764,1084.61463 1286.3134,567.855759 724.821754,593.693702 Z" id="duplicate_102_original_original_Path-2_6701545_28547072" opacity="0.374789946" transform="translate(633.967903, 992.279074) rotate(72.268603) translate(-633.967903, -992.279074) "></path>
                        <path d="M724.02128,597.185335 C167.476699,622.796937 -209.537371,750.854945 -146.701693,1058.19417 C-83.8660146,1365.53339 1262.61281,1493.59139 1388.28417,1288.69858 C1513.95552,1083.80577 1280.56586,571.573734 724.02128,597.185335 Z" id="duplicate_101_original_original_Path-2_6701545_28547072" opacity="0.101211894" transform="translate(633.967903, 992.279074) rotate(71.680818) translate(-633.967903, -992.279074) "></path>
                        <path d="M723.220805,600.676965 C171.623288,626.062225 -202.039547,752.988525 -139.762408,1057.61164 C-77.4852686,1362.23476 1257.02485,1489.16106 1381.57913,1286.07898 C1506.13341,1082.9969 1274.81832,575.291706 723.220805,600.676965 Z" id="duplicate_100_original_original_Path-2_6701545_28547072" opacity="0.912656407" transform="translate(633.967903, 992.279074) rotate(71.072887) translate(-633.967903, -992.279074) "></path>
                        <path d="M722.420331,604.168592 C175.769876,629.32751 -194.541722,755.122102 -132.823122,1057.02912 C-71.1045227,1358.93614 1251.4369,1484.73073 1374.8741,1283.45938 C1498.3113,1082.18804 1269.07079,579.009674 722.420331,604.168592 Z" id="duplicate_99_original_original_Path-2_6701545_28547072" opacity="0.590569678" transform="translate(633.967903, 992.279074) rotate(70.445196) translate(-633.967903, -992.279074) "></path>
                        <path d="M721.619856,607.660215 C179.916465,632.592792 -187.043897,757.255676 -125.883837,1056.4466 C-64.7237768,1355.63752 1245.84895,1480.30041 1368.16907,1280.83979 C1490.48919,1081.37918 1263.32325,582.727638 721.619856,607.660215 Z" id="duplicate_98_original_original_Path-2_6701545_28547072" opacity="0.889081465" transform="translate(633.967903, 992.279074) rotate(69.798140) translate(-633.967903, -992.279074) "></path>
                        <path d="M720.819382,611.151835 C184.063053,635.858071 -179.546073,759.389249 -118.944552,1055.86408 C-58.3430308,1352.33891 1240.26099,1475.87008 1361.46403,1278.2202 C1482.66707,1080.57031 1257.57571,586.445599 720.819382,611.151835 Z" id="duplicate_97_original_original_Path-2_6701545_28547072" opacity="0.000427711289" transform="translate(633.967903, 992.279074) rotate(69.132128) translate(-633.967903, -992.279074) "></path>
                        <path d="M720.018908,614.643451 C188.209642,639.123346 -172.048248,761.52282 -112.005267,1055.28156 C-51.9622849,1349.04029 1234.67304,1471.43977 1354.759,1275.60061 C1474.84496,1079.76145 1251.82817,590.163556 720.018908,614.643451 Z" id="duplicate_96_original_original_Path-2_6701545_28547072" opacity="0.218523289" transform="translate(633.967903, 992.279074) rotate(68.447581) translate(-633.967903, -992.279074) "></path>
                        <path d="M719.218433,618.135064 C192.35623,642.388618 -164.550424,763.656388 -105.065981,1054.69904 C-45.581539,1345.74169 1229.08508,1467.00946 1348.05397,1272.98102 C1467.02285,1078.95259 1246.08064,593.881509 719.218433,618.135064 Z" id="duplicate_95_original_original_Path-2_6701545_28547072" opacity="0.472558271" transform="translate(633.967903, 992.279074) rotate(67.744931) translate(-633.967903, -992.279074) "></path>
                        <path d="M718.417959,621.626672 C196.502819,645.653886 -157.052599,765.789954 -98.1266959,1054.11652 C-39.200793,1342.44308 1223.49713,1462.57915 1341.34893,1270.36144 C1459.20074,1078.14373 1240.3331,597.599458 718.417959,621.626672 Z" id="duplicate_94_original_original_Path-2_6701545_28547072" opacity="0.48804177" transform="translate(633.967903, 992.279074) rotate(67.024622) translate(-633.967903, -992.279074) "></path>
                        <path d="M717.617484,625.118277 C200.649407,648.91915 -149.554774,767.923518 -91.1874106,1053.534 C-32.8200471,1339.14448 1217.90917,1458.14885 1334.6439,1267.74186 C1451.37863,1077.33487 1234.58556,601.317403 717.617484,625.118277 Z" id="duplicate_93_original_original_Path-2_6701545_28547072" opacity="0.520108169" transform="translate(633.967903, 992.279074) rotate(66.287109) translate(-633.967903, -992.279074) "></path>
                        <path d="M716.81701,628.609877 C204.795996,652.184411 -142.05695,770.057079 -84.2481254,1052.95148 C-26.4393012,1335.84588 1212.32122,1453.71855 1327.93887,1265.12228 C1443.55651,1076.52602 1228.83802,605.035344 716.81701,628.609877 Z" id="duplicate_92_original_original_Path-2_6701545_28547072" opacity="0.832616595" transform="translate(633.967903, 992.279074) rotate(65.532858) translate(-633.967903, -992.279074) "></path>
                        <path d="M716.016535,632.101474 C208.942584,655.449668 -134.559125,772.190637 -77.3088401,1052.36896 C-20.0585552,1332.54729 1206.73326,1449.28826 1321.23383,1262.50271 C1435.7344,1075.71716 1223.09049,608.75328 716.016535,632.101474 Z" id="duplicate_91_original_original_Path-2_6701545_28547072" opacity="0.745948887" transform="translate(633.967903, 992.279074) rotate(64.762344) translate(-633.967903, -992.279074) "></path>
                        <path d="M715.216061,635.593066 C213.089172,658.71492 -127.0613,774.324193 -70.3695548,1051.78645 C-13.6778093,1329.2487 1201.14531,1444.85798 1314.5288,1259.88314 C1427.91229,1074.9083 1217.34295,612.471211 715.216061,635.593066 Z" id="duplicate_90_original_original_Path-2_6701545_28547072" opacity="0.397356652" transform="translate(633.967903, 992.279074) rotate(63.976056) translate(-633.967903, -992.279074) "></path>
                        <path d="M714.415586,639.084654 C217.235761,661.980169 -119.563476,776.457747 -63.4302695,1051.20393 C-7.29706338,1325.95012 1195.55735,1440.4277 1307.82376,1257.26357 C1420.09018,1074.09945 1211.59541,616.189138 714.415586,639.084654 Z" id="duplicate_89_original_original_Path-2_6701545_28547072" opacity="0.222217016" transform="translate(633.967903, 992.279074) rotate(63.174489) translate(-633.967903, -992.279074) "></path>
                        <path d="M713.615112,642.576237 C221.382349,665.245413 -112.065651,778.591297 -56.4909842,1050.62142 C-0.916317448,1322.65154 1189.9694,1435.99742 1301.11873,1254.64401 C1412.26806,1073.29059 1205.84787,619.90706 713.615112,642.576237 Z" id="duplicate_88_original_original_Path-2_6701545_28547072" opacity="0.485325034" transform="translate(633.967903, 992.279074) rotate(62.358150) translate(-633.967903, -992.279074) "></path>
                        <path d="M712.814637,646.067815 C225.528938,668.510653 -104.567826,780.724845 -49.5516989,1050.0389 C5.46442848,1319.35296 1184.38144,1431.56715 1294.4137,1252.02445 C1404.44595,1072.48174 1200.10034,623.624977 712.814637,646.067815 Z" id="duplicate_87_original_original_Path-2_6701545_28547072" opacity="0.793808134" transform="translate(633.967903, 992.279074) rotate(61.527554) translate(-633.967903, -992.279074) "></path>
                        <path d="M712.014163,649.559389 C229.675526,671.775889 -97.0700016,782.858389 -42.6124136,1049.45639 C11.8451744,1316.05439 1178.79349,1427.13689 1287.70866,1249.40489 C1396.62384,1071.67289 1194.3528,627.342889 712.014163,649.559389 Z" id="duplicate_86_original_original_Path-2_6701545_28547072" opacity="0.552079958" transform="translate(633.967903, 992.279074) rotate(60.683226) translate(-633.967903, -992.279074) "></path>
                        <path d="M711.213688,653.050957 C233.822115,675.04112 -89.5721769,784.991931 -35.6731283,1048.87388 C18.2259203,1312.75582 1173.20553,1422.70663 1281.00363,1246.78534 C1388.80173,1070.86404 1188.60526,631.060795 711.213688,653.050957 Z" id="duplicate_85_original_original_Path-2_6701545_28547072" opacity="0.766516456" transform="translate(633.967903, 992.279074) rotate(59.825699) translate(-633.967903, -992.279074) "></path>
                        <path d="M710.413214,656.542521 C237.968703,678.306346 -82.0743523,787.125469 -28.733843,1048.29137 C24.6066663,1309.45726 1167.61758,1418.27639 1274.2986,1244.16579 C1380.97962,1070.05519 1182.85772,634.778696 710.413214,656.542521 Z" id="duplicate_84_original_original_Path-2_6701545_28547072" opacity="0.499350028" transform="translate(633.967903, 992.279074) rotate(58.955516) translate(-633.967903, -992.279074) "></path>
                        <path d="M709.61274,660.034079 C242.115292,681.571567 -74.5765276,789.259004 -21.7945577,1047.70885 C30.9874122,1306.15871 1162.02962,1413.84614 1267.59356,1241.54624 C1373.1575,1069.24634 1177.11019,638.496591 709.61274,660.034079 Z" id="duplicate_83_original_original_Path-2_6701545_28547072" opacity="0.883752985" transform="translate(633.967903, 992.279074) rotate(58.073224) translate(-633.967903, -992.279074) "></path>
                        <path d="M708.812265,663.525632 C246.26188,684.836782 -67.0787029,791.392536 -14.8552724,1047.12634 C37.3681581,1302.86015 1156.44167,1409.41591 1260.88853,1238.9267 C1365.33539,1068.4375 1171.36265,642.214481 708.812265,663.525632 Z" id="duplicate_82_original_original_Path-2_6701545_28547072" opacity="0.751554928" transform="translate(633.967903, 992.279074) rotate(57.179383) translate(-633.967903, -992.279074) "></path>
                        <path d="M708.011791,667.017179 C250.408469,688.101993 -59.5808783,793.526064 -7.91598711,1046.54384 C43.7489041,1299.56161 1150.85371,1404.98568 1254.1835,1236.30716 C1357.51328,1067.62865 1165.61511,645.932364 708.011791,667.017179 Z" id="duplicate_81_original_original_Path-2_6701545_28547072" opacity="0.923485155" transform="translate(633.967903, 992.279074) rotate(56.274556) translate(-633.967903, -992.279074) "></path>
                        <path d="M707.211316,670.50872 C254.555057,691.367198 -52.0830536,795.659589 -0.97670181,1045.96133 C50.12965,1296.26307 1145.26576,1400.55546 1247.47846,1233.68763 C1349.69117,1066.81981 1159.86758,649.650241 707.211316,670.50872 Z" id="duplicate_80_original_original_Path-2_6701545_28547072" opacity="0.0659731836" transform="translate(633.967903, 992.279074) rotate(55.359315) translate(-633.967903, -992.279074) "></path>
                        <path d="M706.410842,674.000255 C258.701646,694.632397 -44.585229,797.79311 5.96258349,1045.37882 C56.5103959,1292.96453 1139.67781,1396.12524 1240.77343,1231.0681 C1341.86906,1066.01096 1154.12004,653.368112 706.410842,674.000255 Z" id="duplicate_79_original_original_Path-2_6701545_28547072" opacity="0.779965622" transform="translate(633.967903, 992.279074) rotate(54.434237) translate(-633.967903, -992.279074) "></path>
                        <path d="M705.610367,677.491784 C262.848234,697.897591 -37.0874043,799.926627 12.9018688,1044.79631 C62.8911419,1289.666 1134.08985,1391.69504 1234.0684,1228.44858 C1334.04694,1065.20212 1148.3725,657.085976 705.610367,677.491784 Z" id="duplicate_78_original_original_Path-2_6701545_28547072" opacity="0.815419326" transform="translate(633.967903, 992.279074) rotate(53.499908) translate(-633.967903, -992.279074) "></path>
                        <path d="M704.809893,680.983306 C266.994823,701.162778 -29.5895796,802.060141 19.8411541,1044.21381 C69.2718878,1286.36748 1128.5019,1387.26484 1227.36336,1225.82906 C1326.22483,1064.39328 1142.62496,660.803833 704.809893,680.983306 Z" id="duplicate_77_original_original_Path-2_6701545_28547072" opacity="0.630343198" transform="translate(633.967903, 992.279074) rotate(52.556918) translate(-633.967903, -992.279074) "></path>
                        <path d="M704.009418,684.474821 C271.141411,704.427959 -22.091755,804.19365 26.7804394,1043.63131 C75.6526337,1283.06896 1122.91394,1382.83465 1220.65833,1223.20955 C1318.40272,1063.58444 1136.87743,664.521683 704.009418,684.474821 Z" id="duplicate_76_original_original_Path-2_6701545_28547072" opacity="0.653070329" transform="translate(633.967903, 992.279074) rotate(51.605861) translate(-633.967903, -992.279074) "></path>
                        <path d="M703.208944,687.96633 C275.288,707.693134 -14.5939303,806.327155 33.7197247,1043.0488 C82.0333797,1279.77045 1117.32599,1378.40447 1213.9533,1220.59004 C1310.58061,1062.77561 1131.12989,668.239526 703.208944,687.96633 Z" id="duplicate_75_original_original_Path-2_6701545_28547072" opacity="0.715443312" transform="translate(633.967903, 992.279074) rotate(50.647340) translate(-633.967903, -992.279074) "></path>
                        <path d="M702.408469,691.457832 C279.434588,710.958302 -7.09610567,808.460655 40.65901,1042.4663 C88.4141256,1276.47195 1111.73803,1373.9743 1207.24826,1217.97054 C1302.75849,1061.96677 1125.38235,671.957361 702.408469,691.457832 Z" id="duplicate_74_original_original_Path-2_6701545_28547072" opacity="0.684144146" transform="translate(633.967903, 992.279074) rotate(49.681958) translate(-633.967903, -992.279074) "></path>
                        <path d="M701.607995,694.949326 C283.581177,714.223463 0.401718993,810.594151 47.5982953,1041.8838 C94.7948715,1273.17345 1106.15008,1369.54414 1200.54323,1215.35104 C1294.93638,1061.15794 1119.63481,675.675188 701.607995,694.949326 Z" id="duplicate_73_original_original_Path-2_6701545_28547072" opacity="0.532695367" transform="translate(633.967903, 992.279074) rotate(48.710326) translate(-633.967903, -992.279074) "></path>
                        <path d="M700.80752,698.440812 C287.727765,717.488617 7.89954365,812.727642 54.5375806,1041.3013 C101.175617,1269.87496 1100.56212,1365.11399 1193.8382,1212.73155 C1287.11427,1060.34911 1113.88728,679.393007 700.80752,698.440812 Z" id="duplicate_72_original_original_Path-2_6701545_28547072" opacity="0.909104993" transform="translate(633.967903, 992.279074) rotate(47.733058) translate(-633.967903, -992.279074) "></path>
                        <path d="M700.007046,701.93229 C291.874354,720.753763 15.3973683,814.861129 61.4768658,1040.71881 C107.556363,1266.57648 1094.97417,1360.68385 1187.13316,1210.11206 C1279.29216,1059.54028 1108.13974,683.110817 700.007046,701.93229 Z" id="duplicate_71_original_original_Path-2_6701545_28547072" opacity="0.395162816" transform="translate(633.967903, 992.279074) rotate(46.750771) translate(-633.967903, -992.279074) "></path>
                        <path d="M699.206572,705.42376 C296.020942,724.018902 22.895193,816.99461 68.4161511,1040.13631 C113.937109,1263.27801 1089.38621,1356.25372 1180.42813,1207.49258 C1271.47005,1058.73145 1102.3922,686.828619 699.206572,705.42376 Z" id="duplicate_70_original_original_Path-2_6701545_28547072" opacity="0.071018548" transform="translate(633.967903, 992.279074) rotate(45.764085) translate(-633.967903, -992.279074) "></path>
                        <path d="M698.406097,708.915222 C300.16753,727.284032 30.3930176,819.128086 75.3554364,1039.55382 C120.317855,1259.97954 1083.79826,1351.8236 1173.7231,1204.87311 C1263.64793,1057.92263 1096.64466,690.546411 698.406097,708.915222 Z" id="duplicate_69_original_original_Path-2_6701545_28547072" opacity="0.22380094" transform="translate(633.967903, 992.279074) rotate(44.773624) translate(-633.967903, -992.279074) "></path>
                        <path d="M697.605623,712.406674 C304.314119,730.549155 37.8908423,821.261557 82.2947217,1038.97132 C126.698601,1256.68109 1078.2103,1347.39349 1167.01806,1202.25365 C1255.82582,1057.1138 1090.89713,694.264194 697.605623,712.406674 Z" id="duplicate_68_original_original_Path-2_6701545_28547072" opacity="0.989111252" transform="translate(633.967903, 992.279074) rotate(43.780012) translate(-633.967903, -992.279074) "></path>
                        <path d="M696.805148,715.898117 C308.460707,733.814268 45.3886669,823.395022 89.234007,1038.38883 C133.079347,1253.38264 1072.62235,1342.96339 1160.31303,1199.63419 C1248.00371,1056.30498 1085.14959,697.981967 696.805148,715.898117 Z" id="duplicate_67_original_original_Path-2_6701545_28547072" opacity="0.760683432" transform="translate(633.967903, 992.279074) rotate(42.783879) translate(-633.967903, -992.279074) "></path>
                        <path d="M696.004674,719.389551 C312.607296,737.079373 52.8864916,825.528481 96.1732923,1037.80634 C139.460093,1250.0842 1067.03439,1338.53331 1153.608,1197.01474 C1240.1816,1055.49616 1079.40205,701.699729 696.004674,719.389551 Z" id="duplicate_66_original_original_Path-2_6701545_28547072" opacity="0.664545924" transform="translate(633.967903, 992.279074) rotate(41.785852) translate(-633.967903, -992.279074) "></path>
                        <path d="M695.204199,722.880974 C316.753884,740.344468 60.3843163,827.661934 103.112578,1037.22385 C145.840839,1246.78577 1061.44644,1334.10324 1146.90296,1194.39529 C1232.35948,1054.68735 1073.65451,705.417481 695.204199,722.880974 Z" id="duplicate_65_original_original_Path-2_6701545_28547072" opacity="0.87848282" transform="translate(633.967903, 992.279074) rotate(40.786562) translate(-633.967903, -992.279074) "></path>
                        <path d="M694.403725,726.372388 C320.900473,743.609553 67.8821409,829.79538 110.051863,1036.64137 C152.221585,1243.48735 1055.85848,1329.67318 1140.19793,1191.77585 C1224.53737,1053.87853 1067.90698,709.135222 694.403725,726.372388 Z" id="duplicate_64_original_original_Path-2_6701545_28547072" opacity="0.696980934" transform="translate(633.967903, 992.279074) rotate(39.786641) translate(-633.967903, -992.279074) "></path>
                        <path d="M693.60325,729.86379 C325.047061,746.874628 75.3799656,831.92882 116.991148,1036.05888 C158.602331,1240.18894 1050.27053,1325.24313 1133.4929,1189.15643 C1216.71526,1053.06972 1062.15944,712.852951 693.60325,729.86379 Z" id="duplicate_63_original_original_Path-2_6701545_28547072" opacity="0.131925324" transform="translate(633.967903, 992.279074) rotate(38.786720) translate(-633.967903, -992.279074) "></path>
                        <path d="M692.802776,733.355181 C329.19365,750.139693 82.8777902,834.062253 123.930434,1035.4764 C164.983077,1236.89054 1044.68258,1320.8131 1126.78786,1186.53701 C1208.89315,1052.26091 1056.4119,716.570669 692.802776,733.355181 Z" id="duplicate_62_original_original_Path-2_6701545_28547072" opacity="0.505408094" transform="translate(633.967903, 992.279074) rotate(37.787431) translate(-633.967903, -992.279074) "></path>
                        <path d="M692.002301,736.84656 C333.340238,753.404746 90.3756149,836.195679 130.869719,1034.89392 C171.363823,1233.59215 1039.09462,1316.38309 1120.08283,1183.9176 C1201.07104,1051.4521 1050.66436,720.288373 692.002301,736.84656 Z" id="duplicate_61_original_original_Path-2_6701545_28547072" opacity="0.497135983" transform="translate(633.967903, 992.279074) rotate(36.789404) translate(-633.967903, -992.279074) "></path>
                        <path d="M691.201827,740.337927 C337.486827,756.669789 97.8734396,838.329097 137.809004,1034.31144 C177.744569,1230.29378 1033.50667,1311.95309 1113.37779,1181.29819 C1193.24892,1050.6433 1044.91683,724.006065 691.201827,740.337927 Z" id="duplicate_60_original_original_Path-2_6701545_28547072" opacity="0.679791147" transform="translate(633.967903, 992.279074) rotate(35.793271) translate(-633.967903, -992.279074) "></path>
                        <path d="M690.401352,743.829281 C341.633415,759.934819 105.371264,840.462508 144.748289,1033.72896 C184.125315,1226.99541 1027.91871,1307.5231 1106.67276,1178.6788 C1185.42681,1049.8345 1039.16929,727.723743 690.401352,743.829281 Z" id="duplicate_59_original_original_Path-2_6701545_28547072" opacity="0.96126793" transform="translate(633.967903, 992.279074) rotate(34.799659) translate(-633.967903, -992.279074) "></path>
                        <path d="M689.600878,747.320621 C345.780004,763.199836 112.869089,842.59591 151.687575,1033.14649 C190.50606,1223.69706 1022.33076,1303.09314 1099.96773,1176.05942 C1177.6047,1049.0257 1033.42175,731.441407 689.600878,747.320621 Z" id="duplicate_58_original_original_Path-2_6701545_28547072" opacity="0.478773465" transform="translate(633.967903, 992.279074) rotate(33.809198) translate(-633.967903, -992.279074) "></path>
                        <path d="M688.800403,750.811948 C349.926592,766.464841 120.366914,844.729304 158.62686,1032.56401 C196.886806,1220.39873 1016.7428,1298.66319 1093.26269,1173.44005 C1169.78259,1048.21691 1027.67421,735.159056 688.800403,750.811948 Z" id="duplicate_57_original_original_Path-2_6701545_28547072" opacity="0.619337373" transform="translate(633.967903, 992.279074) rotate(32.822512) translate(-633.967903, -992.279074) "></path>
                        <path d="M687.999929,754.30326 C354.073181,769.729832 127.864738,846.862688 165.566145,1031.98154 C203.267552,1217.1004 1011.15485,1294.23326 1086.55766,1170.82069 C1161.96048,1047.40812 1021.92668,738.876689 687.999929,754.30326 Z" id="duplicate_56_original_original_Path-2_6701545_28547072" opacity="0.50969931" transform="translate(633.967903, 992.279074) rotate(31.840225) translate(-633.967903, -992.279074) "></path>
                        <path d="M687.199455,757.794557 C358.219769,772.994808 135.362563,848.996064 172.505431,1031.39908 C209.648298,1213.80209 1005.56689,1289.80335 1079.85263,1168.20134 C1154.13836,1046.59933 1016.17914,742.594306 687.199455,757.794557 Z" id="duplicate_55_original_original_Path-2_6701545_28547072" opacity="0.923584809" transform="translate(633.967903, 992.279074) rotate(30.862956) translate(-633.967903, -992.279074) "></path>
                        <path d="M686.39898,761.285838 C362.366358,776.25977 142.860388,851.12943 179.444716,1030.81661 C216.029044,1210.5038 999.978937,1285.37346 1073.14759,1165.582 C1146.31625,1045.79054 1010.4316,746.311906 686.39898,761.285838 Z" id="duplicate_54_original_original_Path-2_6701545_28547072" opacity="0.377691521" transform="translate(633.967903, 992.279074) rotate(29.891325) translate(-633.967903, -992.279074) "></path>
                        <path d="M685.598506,764.777102 C366.512946,779.524716 150.358212,853.262785 186.384001,1030.23415 C222.40979,1207.20552 994.390983,1280.94359 1066.44256,1162.96268 C1138.49414,1044.98177 1004.68407,750.029488 685.598506,764.777102 Z" id="duplicate_53_original_original_Path-2_6701545_28547072" opacity="0.106692861" transform="translate(633.967903, 992.279074) rotate(28.925943) translate(-633.967903, -992.279074) "></path>
                        <path d="M684.798031,768.268349 C370.659535,782.789646 157.856037,855.39613 193.323286,1029.65169 C228.790536,1203.90725 988.803028,1276.51374 1059.73753,1160.34336 C1130.67203,1044.17299 998.936528,753.747052 684.798031,768.268349 Z" id="duplicate_52_original_original_Path-2_6701545_28547072" opacity="0.161820359" transform="translate(633.967903, 992.279074) rotate(27.967421) translate(-633.967903, -992.279074) "></path>
                        <path d="M683.997557,771.759577 C374.806123,786.054558 165.353861,857.529463 200.262572,1029.06924 C235.171282,1200.60901 983.215073,1272.08392 1053.03249,1157.72407 C1122.84991,1043.36422 993.18899,757.464596 683.997557,771.759577 Z" id="duplicate_51_original_original_Path-2_6701545_28547072" opacity="0.0565380245" transform="translate(633.967903, 992.279074) rotate(27.016365) translate(-633.967903, -992.279074) "></path>
                        <path d="M683.197082,775.250786 C378.952711,789.319452 172.851686,859.662785 207.201857,1028.48678 C241.552028,1197.31078 977.627118,1267.65412 1046.32746,1155.10478 C1115.0278,1042.55545 987.441453,761.182119 683.197082,775.250786 Z" id="duplicate_50_original_original_Path-2_6701545_28547072" opacity="0.549457202" transform="translate(633.967903, 992.279074) rotate(26.073374) translate(-633.967903, -992.279074) "></path>
                        <path d="M682.396608,778.741974 C383.0993,792.584328 180.349511,861.796095 214.141142,1027.90433 C247.932774,1194.01258 972.039164,1263.22434 1039.62243,1152.48552 C1107.20569,1041.74669 981.693916,764.899621 682.396608,778.741974 Z" id="duplicate_49_original_original_Path-2_6701545_28547072" opacity="0.727924646" transform="translate(633.967903, 992.279074) rotate(25.139045) translate(-633.967903, -992.279074) "></path>
                        <path d="M681.596133,782.233142 C387.245888,795.849183 187.847335,863.929391 221.080428,1027.32189 C254.31352,1190.71439 966.451209,1258.7946 1032.91739,1149.86626 C1099.38358,1040.93793 975.946378,768.6171 681.596133,782.233142 Z" id="duplicate_48_original_original_Path-2_6701545_28547072" opacity="0.0398891601" transform="translate(633.967903, 992.279074) rotate(24.213968) translate(-633.967903, -992.279074) "></path>
                        <path d="M680.795659,785.724286 C391.392477,799.114018 195.34516,866.062673 228.019713,1026.73945 C260.694266,1187.41622 960.863254,1254.36488 1026.21236,1147.24703 C1091.56147,1040.12918 970.198841,772.334555 680.795659,785.724286 Z" id="duplicate_47_original_original_Path-2_6701545_28547072" opacity="0.12229199" transform="translate(633.967903, 992.279074) rotate(23.298727) translate(-633.967903, -992.279074) "></path>
                        <path d="M679.995184,789.215408 C395.539065,802.37883 202.842985,868.195942 234.958998,1026.15701 C267.075012,1184.11808 955.2753,1249.93519 1019.50733,1144.62781 C1083.73935,1039.32043 964.451303,776.051985 679.995184,789.215408 Z" id="duplicate_46_original_original_Path-2_6701545_28547072" opacity="0.00199482031" transform="translate(633.967903, 992.279074) rotate(22.393900) translate(-633.967903, -992.279074) "></path>
                        <path d="M679.19471,792.706504 C399.685654,805.643619 210.340809,870.329195 241.898284,1025.57458 C273.455758,1180.81996 949.687345,1245.50553 1012.80229,1142.00861 C1075.91724,1038.51169 958.703766,779.769389 679.19471,792.706504 Z" id="duplicate_45_original_original_Path-2_6701545_28547072" opacity="0.939233616" transform="translate(633.967903, 992.279074) rotate(21.500058) translate(-633.967903, -992.279074) "></path>
                        <path d="M678.394235,796.197574 C403.832242,808.908384 217.838634,872.462432 248.837569,1024.99215 C279.836504,1177.52186 944.09939,1241.07591 1006.09726,1139.38943 C1068.09513,1037.70296 952.956229,783.486764 678.394235,796.197574 Z" id="duplicate_44_original_original_Path-2_6701545_28547072" opacity="0.435142375" transform="translate(633.967903, 992.279074) rotate(20.617767) translate(-633.967903, -992.279074) "></path>
                        <path d="M677.593761,799.688616 C407.978831,812.173122 225.336459,874.595651 255.776854,1024.40972 C286.217249,1174.22379 938.511435,1236.64632 999.392226,1136.77027 C1060.27302,1036.89423 947.208691,787.204111 677.593761,799.688616 Z" id="duplicate_43_original_original_Path-2_6701545_28547072" opacity="0.802328823" transform="translate(633.967903, 992.279074) rotate(19.747583) translate(-633.967903, -992.279074) "></path>
                        <path d="M676.793287,803.179629 C412.125419,815.437833 232.834283,876.728854 262.716139,1023.8273 C292.597995,1170.92575 932.923481,1232.21677 992.687193,1134.15114 C1052.4509,1036.08551 941.461154,790.921425 676.793287,803.179629 Z" id="duplicate_42_original_original_Path-2_6701545_28547072" opacity="0.155129872" transform="translate(633.967903, 992.279074) rotate(18.890057) translate(-633.967903, -992.279074) "></path>
                        <path d="M675.992812,806.670611 C416.272008,818.702516 240.332108,878.862037 269.655425,1023.24489 C298.978741,1167.62774 927.335526,1227.78726 985.982159,1131.53203 C1044.62879,1035.27679 935.713616,794.638707 675.992812,806.670611 Z" id="duplicate_41_original_original_Path-2_6701545_28547072" opacity="0.915925586" transform="translate(633.967903, 992.279074) rotate(18.045729) translate(-633.967903, -992.279074) "></path>
                        <path d="M675.192338,810.16156 C420.418596,821.967167 247.829933,880.9952 276.59471,1022.66248 C305.359487,1164.32976 921.747571,1223.35779 979.277126,1128.91294 C1036.80668,1034.46808 929.966079,798.355954 675.192338,810.16156 Z" id="duplicate_40_original_original_Path-2_6701545_28547072" opacity="0.523052611" transform="translate(633.967903, 992.279074) rotate(17.215133) translate(-633.967903, -992.279074) "></path>
                        <path d="M674.391863,813.652475 C424.565185,825.231786 255.327757,883.128341 283.533995,1022.08007 C311.740233,1161.03181 916.159616,1218.92836 972.572092,1126.29387 C1028.98457,1033.65939 924.218542,802.073163 674.391863,813.652475 Z" id="duplicate_39_original_original_Path-2_6701545_28547072" opacity="0.975706575" transform="translate(633.967903, 992.279074) rotate(16.398794) translate(-633.967903, -992.279074) "></path>
                        <path d="M673.591389,817.143352 C428.711773,828.49637 262.825582,885.26146 290.473281,1021.49768 C318.120979,1157.73389 910.571662,1214.49898 965.867059,1123.67484 C1021.16246,1032.8507 918.471004,805.790334 673.591389,817.143352 Z" id="duplicate_38_original_original_Path-2_6701545_28547072" opacity="0.0119679943" transform="translate(633.967903, 992.279074) rotate(15.597227) translate(-633.967903, -992.279074) "></path>
                        <path d="M672.790914,820.63419 C432.858362,831.760917 270.323407,887.394555 297.412566,1020.91529 C324.501725,1154.43602 904.983707,1210.06966 959.162025,1121.05584 C1013.34034,1032.04201 912.723467,809.507462 672.790914,820.63419 Z" id="duplicate_37_original_original_Path-2_6701545_28547072" opacity="0.77481663" transform="translate(633.967903, 992.279074) rotate(14.810938) translate(-633.967903, -992.279074) "></path>
                        <path d="M671.99044,824.124985 C437.00495,835.025425 277.821231,889.527625 304.351851,1020.3329 C330.882471,1151.13818 899.395752,1205.64038 952.456992,1118.43686 C1005.51823,1031.23334 906.975929,813.224546 671.99044,824.124985 Z" id="duplicate_36_original_original_Path-2_6701545_28547072" opacity="0.205733038" transform="translate(633.967903, 992.279074) rotate(14.040425) translate(-633.967903, -992.279074) "></path>
                        <path d="M671.189965,827.615737 C441.151539,838.289892 285.319056,891.660667 311.291136,1019.75053 C337.263217,1147.84039 893.807798,1201.21116 945.751958,1115.81792 C997.696119,1030.42468 901.228392,816.941582 671.189965,827.615737 Z" id="duplicate_35_original_original_Path-2_6701545_28547072" opacity="0.663765823" transform="translate(633.967903, 992.279074) rotate(13.286174) translate(-633.967903, -992.279074) "></path>
                        <path d="M670.389491,831.10644 C445.298127,841.554313 292.816881,893.79368 318.230422,1019.16816 C343.643963,1144.54264 888.219843,1196.782 939.046925,1113.19902 C989.874007,1029.61603 895.480855,820.658567 670.389491,831.10644 Z" id="duplicate_34_original_original_Path-2_6701545_28547072" opacity="0.857416974" transform="translate(633.967903, 992.279074) rotate(12.548661) translate(-633.967903, -992.279074) "></path>
                        <path d="M669.589016,834.597093 C449.444716,844.818688 300.314705,895.926661 325.169707,1018.5858 C350.024709,1141.24494 882.631888,1192.35291 932.341891,1110.58015 C982.051895,1028.80739 889.733317,824.375498 669.589016,834.597093 Z" id="duplicate_33_original_original_Path-2_6701545_28547072" opacity="0.658015898" transform="translate(633.967903, 992.279074) rotate(11.828352) translate(-633.967903, -992.279074) "></path>
                        <path d="M668.788542,838.087691 C453.591304,848.083011 307.81253,898.05961 332.108992,1018.00345 C356.405455,1137.94729 877.043933,1187.92389 925.636858,1107.96133 C974.229783,1027.99877 883.98578,828.092371 668.788542,838.087691 Z" id="duplicate_32_original_original_Path-2_6701545_28547072" opacity="0.438952461" transform="translate(633.967903, 992.279074) rotate(11.125702) translate(-633.967903, -992.279074) "></path>
                        <path d="M667.988067,841.57823 C457.737893,851.347279 315.310355,900.192523 339.048278,1017.42111 C362.786201,1134.64969 871.455979,1183.49494 918.931825,1105.34255 C966.40767,1027.19016 878.238242,831.809181 667.988067,841.57823 Z" id="duplicate_31_original_original_Path-2_6701545_28547072" opacity="0.0860658018" transform="translate(633.967903, 992.279074) rotate(10.441154) translate(-633.967903, -992.279074) "></path>
                        <path d="M667.187593,845.068707 C461.884481,854.611489 322.808179,902.325397 345.987563,1016.83878 C369.166947,1131.35216 865.868024,1179.06607 912.226791,1102.72381 C958.585558,1026.38156 872.490705,835.525925 667.187593,845.068707 Z" id="duplicate_30_original_original_Path-2_6701545_28547072" opacity="0.71434237" transform="translate(633.967903, 992.279074) rotate(9.775143) translate(-633.967903, -992.279074) "></path>
                        <path d="M666.387118,848.559116 C466.031069,857.875635 330.306004,904.45823 352.926848,1016.25646 C375.547692,1128.05469 860.280069,1174.63728 905.521758,1100.10513 C950.763446,1025.57298 866.743168,839.242597 666.387118,848.559116 Z" id="duplicate_29_original_original_Path-2_6701545_28547072" opacity="0.58907294" transform="translate(633.967903, 992.279074) rotate(9.128087) translate(-633.967903, -992.279074) "></path>
                        <path d="M665.586644,852.049452 C470.177658,861.139713 337.803829,906.591018 359.866134,1015.67415 C381.928438,1124.75728 854.692114,1170.20859 898.816724,1097.4865 C942.941334,1024.76441 860.99563,842.959191 665.586644,852.049452 Z" id="duplicate_28_original_original_Path-2_6701545_28547072" opacity="0.415877502" transform="translate(633.967903, 992.279074) rotate(8.500395) translate(-633.967903, -992.279074) "></path>
                        <path d="M664.78617,855.539709 C474.324246,864.403718 345.301653,908.723759 366.805419,1015.09186 C388.309184,1121.45996 849.10416,1165.78 892.111691,1094.86793 C935.119222,1023.95587 855.248093,846.675701 664.78617,855.539709 Z" id="duplicate_27_original_original_Path-2_6701545_28547072" opacity="0.827654887" transform="translate(633.967903, 992.279074) rotate(7.892465) translate(-633.967903, -992.279074) "></path>
                        <path d="M663.985695,859.029882 C478.470835,867.667642 352.799478,910.856447 373.744704,1014.50958 C394.68993,1118.16271 843.516205,1161.35151 885.406657,1092.24943 C927.29711,1023.14734 849.500555,850.392121 663.985695,859.029882 Z" id="duplicate_26_original_original_Path-2_6701545_28547072" opacity="0.260992891" transform="translate(633.967903, 992.279074) rotate(7.304680) translate(-633.967903, -992.279074) "></path>
                        <path d="M663.185221,862.519961 C482.617423,870.931481 360.297303,912.989079 380.683989,1013.92731 C401.070676,1114.86555 837.92825,1156.92315 878.701624,1089.63099 C919.474997,1022.33883 843.753018,854.108442 663.185221,862.519961 Z" id="duplicate_25_original_original_Path-2_6701545_28547072" opacity="0.930528632" transform="translate(633.967903, 992.279074) rotate(6.737411) translate(-633.967903, -992.279074) "></path>
                        <path d="M662.384746,866.009941 C486.764012,874.195225 367.795127,915.121649 387.623275,1013.34507 C407.451422,1111.56848 832.340296,1152.49491 871.99659,1087.01263 C911.652885,1021.53035 838.00548,857.824656 662.384746,866.009941 Z" id="duplicate_24_original_original_Path-2_6701545_28547072" opacity="0.749278633" transform="translate(633.967903, 992.279074) rotate(6.191016) translate(-633.967903, -992.279074) "></path>
                        <path d="M661.584272,869.499811 C490.9106,877.458868 375.292952,917.254153 394.56256,1012.76284 C413.832168,1108.27152 826.752341,1148.06681 865.291557,1084.39435 C903.830773,1020.72189 832.257943,861.540754 661.584272,869.499811 Z" id="duplicate_23_original_original_Path-2_6701545_28547072" opacity="0.0738264851" transform="translate(633.967903, 992.279074) rotate(5.665842) translate(-633.967903, -992.279074) "></path>
                        <path d="M660.783797,872.989561 C495.057189,880.722398 382.790777,919.386583 401.501845,1012.18063 C420.212914,1104.97467 821.164386,1143.63886 858.586523,1081.77616 C896.008661,1019.91346 826.510406,865.256724 660.783797,872.989561 Z" id="duplicate_22_original_original_Path-2_6701545_28547072" opacity="0.934397749" transform="translate(633.967903, 992.279074) rotate(5.162219) translate(-633.967903, -992.279074) "></path>
                        <path d="M659.983323,876.479181 C499.203777,883.985806 390.288601,921.518934 408.441131,1011.59844 C426.59366,1101.67795 815.576431,1139.21107 851.88149,1079.15807 C888.186549,1019.10507 820.762868,868.972555 659.983323,876.479181 Z" id="duplicate_21_original_original_Path-2_6701545_28547072" opacity="0.0236432781" transform="translate(633.967903, 992.279074) rotate(4.680465) translate(-633.967903, -992.279074) "></path>
                        <path d="M659.182848,879.968656 C503.350366,887.24908 397.786426,923.651197 415.380416,1011.01628 C432.974406,1098.38136 809.988477,1134.78347 845.176457,1076.54009 C880.364436,1018.2967 815.015331,872.688233 659.182848,879.968656 Z" id="duplicate_20_original_original_Path-2_6701545_28547072" opacity="0.304498272" transform="translate(633.967903, 992.279074) rotate(4.220885) translate(-633.967903, -992.279074) "></path>
                        <path d="M658.382374,883.457974 C507.496954,890.512205 405.284251,925.783362 422.319701,1010.43414 C439.355152,1095.08492 804.400522,1130.35607 838.471423,1073.92222 C872.542324,1017.48837 809.267793,876.403742 658.382374,883.457974 Z" id="duplicate_19_original_original_Path-2_6701545_28547072" opacity="0.0161313494" transform="translate(633.967903, 992.279074) rotate(3.783769) translate(-633.967903, -992.279074) "></path>
                        <path d="M657.581899,886.947116 C511.643543,893.775167 412.782075,927.915421 429.258986,1009.85203 C445.735898,1091.78864 798.812567,1125.9289 831.76639,1071.30449 C864.720212,1016.68008 803.520256,880.119065 657.581899,886.947116 Z" id="duplicate_18_original_original_Path-2_6701545_28547072" opacity="0.785612669" transform="translate(633.967903, 992.279074) rotate(3.369394) translate(-633.967903, -992.279074) "></path>
                        <path d="M656.781425,890.436064 C515.790131,897.037947 420.2799,930.047362 436.198272,1009.26996 C452.116644,1088.49255 793.224612,1121.50197 825.061356,1068.6869 C856.8981,1015.87184 797.772719,883.834181 656.781425,890.436064 Z" id="duplicate_17_original_original_Path-2_6701545_28547072" opacity="0.4252238" transform="translate(633.967903, 992.279074) rotate(2.978020) translate(-633.967903, -992.279074) "></path>
                        <path d="M655.98095,893.924796 C519.93672,900.300525 427.777725,932.17917 443.137557,1008.68792 C458.49739,1085.19667 787.636658,1117.07531 818.356323,1066.06948 C849.075988,1015.06365 792.025181,887.549067 655.98095,893.924796 Z" id="duplicate_16_original_original_Path-2_6701545_28547072" opacity="0.447288998" transform="translate(633.967903, 992.279074) rotate(2.609895) translate(-633.967903, -992.279074) "></path>
                    </g>
                </g>
            </g>
        </g>
    </g>
</svg>